<svg xmlns="http://www.w3.org/2000/svg" viewBox="0 0 700 500"><g id="freepik--background-simple--inject-248"><path d="M653.63,152.77C602.29,49,441.38-10,347.26,99.62q-5.55,6.48-10.49,13.51c-24,34.11-60,93.18-104,78.73-30.1-9.88-50.75-37.17-80.53-47.78-39.25-14-76.56,14.65-100.59,51.25C23.71,237.88,10.35,287.82,26.25,334c29.6,86,144.84,105.33,223.7,97.45,57.76-5.78,113.51-37.05,171.37-39,41.62-1.42,81.43,10.1,118.94,24.41,17.38,6.63,34.75,13.94,53.55,15.77,67.28,6.54,80.12-60.71,81.73-117.27C677.14,259.12,677.59,201.2,653.63,152.77Z" style="fill:#FFC100"></path><path d="M653.63,152.77C602.29,49,441.38-10,347.26,99.62q-5.55,6.48-10.49,13.51c-24,34.11-60,93.18-104,78.73-30.1-9.88-50.75-37.17-80.53-47.78-39.25-14-76.56,14.65-100.59,51.25C23.71,237.88,10.35,287.82,26.25,334c29.6,86,144.84,105.33,223.7,97.45,57.76-5.78,113.51-37.05,171.37-39,41.62-1.42,81.43,10.1,118.94,24.41,17.38,6.63,34.75,13.94,53.55,15.77,67.28,6.54,80.12-60.71,81.73-117.27C677.14,259.12,677.59,201.2,653.63,152.77Z" style="fill:#fff;opacity:0.7000000000000001"></path></g><g id="freepik--Windows--inject-248"><polygon points="160.34 74.44 97.36 74.44 96.52 83.1 160.34 83.1 160.34 74.44" style="fill:none;stroke:#263238;stroke-miterlimit:10"></polygon><polygon points="160.34 83.1 97.36 83.1 96.52 91.76 160.34 91.76 160.34 83.1" style="fill:none;stroke:#263238;stroke-miterlimit:10"></polygon><polygon points="160.34 91.76 97.36 91.76 96.52 100.42 160.34 100.42 160.34 91.76" style="fill:none;stroke:#263238;stroke-miterlimit:10"></polygon><polygon points="160.34 100.42 97.36 100.42 96.52 109.08 160.34 109.08 160.34 100.42" style="fill:none;stroke:#263238;stroke-miterlimit:10"></polygon><polygon points="160.34 109.08 97.36 109.08 96.52 117.73 160.34 117.73 160.34 109.08" style="fill:none;stroke:#263238;stroke-miterlimit:10"></polygon><polygon points="160.34 117.73 97.36 117.73 96.52 126.39 160.34 126.39 160.34 117.73" style="fill:none;stroke:#263238;stroke-miterlimit:10"></polygon><polygon points="160.34 126.39 97.36 126.39 96.52 135.05 160.34 135.05 160.34 126.39" style="fill:none;stroke:#263238;stroke-miterlimit:10"></polygon><polygon points="160.34 135.05 97.36 135.05 96.52 143.71 160.34 143.71 160.34 135.05" style="fill:none;stroke:#263238;stroke-miterlimit:10"></polygon><polygon points="160.34 143.71 97.36 143.71 96.52 152.37 160.34 152.37 160.34 143.71" style="fill:none;stroke:#263238;stroke-miterlimit:10"></polygon><polygon points="160.34 152.37 97.36 152.37 96.52 161.03 160.34 161.03 160.34 152.37" style="fill:none;stroke:#263238;stroke-miterlimit:10"></polygon><polygon points="160.34 161.03 97.36 161.03 96.52 169.69 160.34 169.69 160.34 161.03" style="fill:none;stroke:#263238;stroke-miterlimit:10"></polygon><polygon points="160.34 169.69 97.36 169.69 96.52 178.35 160.34 178.35 160.34 169.69" style="fill:none;stroke:#263238;stroke-miterlimit:10"></polygon><polygon points="160.34 178.35 97.36 178.35 96.52 187.01 160.34 187.01 160.34 178.35" style="fill:none;stroke:#263238;stroke-miterlimit:10"></polygon><polygon points="160.34 187.01 97.36 187.01 96.52 195.67 160.34 195.67 160.34 187.01" style="fill:none;stroke:#263238;stroke-miterlimit:10"></polygon><polygon points="160.34 195.67 97.36 195.67 96.52 204.33 160.34 204.33 160.34 195.67" style="fill:none;stroke:#263238;stroke-miterlimit:10"></polygon><polygon points="160.34 204.31 97.36 204.31 96.52 212.97 160.34 212.97 160.34 204.31" style="fill:none;stroke:#263238;stroke-miterlimit:10"></polygon><polygon points="160.34 212.96 97.36 212.96 96.52 221.62 160.34 221.62 160.34 212.96" style="fill:none;stroke:#263238;stroke-miterlimit:10"></polygon><polygon points="160.34 221.6 97.36 221.6 96.52 230.26 160.34 230.26 160.34 221.6" style="fill:none;stroke:#263238;stroke-miterlimit:10"></polygon><polygon points="160.34 230.25 97.36 230.25 96.52 238.91 160.34 238.91 160.34 230.25" style="fill:none;stroke:#263238;stroke-miterlimit:10"></polygon><polygon points="160.34 238.89 97.36 238.89 96.52 247.55 160.34 247.55 160.34 238.89" style="fill:none;stroke:#263238;stroke-miterlimit:10"></polygon><polygon points="160.34 247.54 97.36 247.54 96.52 256.19 160.34 256.19 160.34 247.54" style="fill:none;stroke:#263238;stroke-miterlimit:10"></polygon><polygon points="225.09 74.44 162.1 74.44 161.27 83.1 225.09 83.1 225.09 74.44" style="fill:none;stroke:#263238;stroke-miterlimit:10"></polygon><polygon points="225.09 83.1 162.1 83.1 161.27 91.76 225.09 91.76 225.09 83.1" style="fill:none;stroke:#263238;stroke-miterlimit:10"></polygon><polygon points="225.09 91.76 162.1 91.76 161.27 100.42 225.09 100.42 225.09 91.76" style="fill:none;stroke:#263238;stroke-miterlimit:10"></polygon><polygon points="225.09 100.42 162.1 100.42 161.27 109.08 225.09 109.08 225.09 100.42" style="fill:none;stroke:#263238;stroke-miterlimit:10"></polygon><polygon points="225.09 109.08 162.1 109.08 161.27 117.73 225.09 117.73 225.09 109.08" style="fill:none;stroke:#263238;stroke-miterlimit:10"></polygon><polygon points="225.09 117.73 162.1 117.73 161.27 126.39 225.09 126.39 225.09 117.73" style="fill:none;stroke:#263238;stroke-miterlimit:10"></polygon><polygon points="225.09 126.39 162.1 126.39 161.27 135.05 225.09 135.05 225.09 126.39" style="fill:none;stroke:#263238;stroke-miterlimit:10"></polygon><polygon points="225.09 135.05 162.1 135.05 161.27 143.71 225.09 143.71 225.09 135.05" style="fill:none;stroke:#263238;stroke-miterlimit:10"></polygon><polygon points="225.09 143.71 162.1 143.71 161.27 152.37 225.09 152.37 225.09 143.71" style="fill:none;stroke:#263238;stroke-miterlimit:10"></polygon><polygon points="225.09 152.37 162.1 152.37 161.27 161.03 225.09 161.03 225.09 152.37" style="fill:none;stroke:#263238;stroke-miterlimit:10"></polygon><polygon points="225.09 161.03 162.1 161.03 161.27 169.69 225.09 169.69 225.09 161.03" style="fill:none;stroke:#263238;stroke-miterlimit:10"></polygon><polygon points="225.09 169.69 162.1 169.69 161.27 178.35 225.09 178.35 225.09 169.69" style="fill:none;stroke:#263238;stroke-miterlimit:10"></polygon><polygon points="225.09 178.35 162.1 178.35 161.27 187.01 225.09 187.01 225.09 178.35" style="fill:none;stroke:#263238;stroke-miterlimit:10"></polygon><polygon points="225.09 187.01 162.1 187.01 161.27 195.67 225.09 195.67 225.09 187.01" style="fill:none;stroke:#263238;stroke-miterlimit:10"></polygon><polygon points="225.09 195.67 162.1 195.67 161.27 204.33 225.09 204.33 225.09 195.67" style="fill:none;stroke:#263238;stroke-miterlimit:10"></polygon><polygon points="225.09 204.31 162.1 204.31 161.27 212.97 225.09 212.97 225.09 204.31" style="fill:none;stroke:#263238;stroke-miterlimit:10"></polygon><polygon points="225.09 212.96 162.1 212.96 161.27 221.62 225.09 221.62 225.09 212.96" style="fill:none;stroke:#263238;stroke-miterlimit:10"></polygon><polygon points="225.09 221.6 162.1 221.6 161.27 230.26 225.09 230.26 225.09 221.6" style="fill:none;stroke:#263238;stroke-miterlimit:10"></polygon><polygon points="225.09 230.25 162.1 230.25 161.27 238.91 225.09 238.91 225.09 230.25" style="fill:none;stroke:#263238;stroke-miterlimit:10"></polygon><polygon points="225.09 238.89 162.1 238.89 161.27 247.55 225.09 247.55 225.09 238.89" style="fill:none;stroke:#263238;stroke-miterlimit:10"></polygon><polygon points="225.09 247.54 162.1 247.54 161.27 256.19 225.09 256.19 225.09 247.54" style="fill:none;stroke:#263238;stroke-miterlimit:10"></polygon><rect x="95.05" y="67.73" width="133.19" height="6.53" style="fill:none;stroke:#263238;stroke-miterlimit:10"></rect><line x1="228.24" y1="74.27" x2="228.24" y2="189.31" style="fill:none;stroke:#263238;stroke-miterlimit:10"></line><line x1="226.79" y1="74.45" x2="226.79" y2="153.38" style="fill:none;stroke:#263238;stroke-miterlimit:10"></line><rect x="227.4" y="189.06" width="1.79" height="2.93" style="fill:#263238;stroke:#263238;stroke-miterlimit:10"></rect><rect x="225.78" y="152.76" width="1.79" height="2.93" style="fill:#263238;stroke:#263238;stroke-miterlimit:10"></rect><polygon points="545.55 74.44 482.56 74.44 481.73 83.1 545.55 83.1 545.55 74.44" style="fill:none;stroke:#263238;stroke-miterlimit:10"></polygon><polygon points="545.55 83.1 482.56 83.1 481.73 91.76 545.55 91.76 545.55 83.1" style="fill:none;stroke:#263238;stroke-miterlimit:10"></polygon><polygon points="545.55 91.76 482.56 91.76 481.73 100.42 545.55 100.42 545.55 91.76" style="fill:none;stroke:#263238;stroke-miterlimit:10"></polygon><polygon points="545.55 100.42 482.56 100.42 481.73 109.08 545.55 109.08 545.55 100.42" style="fill:none;stroke:#263238;stroke-miterlimit:10"></polygon><polygon points="545.55 109.08 482.56 109.08 481.73 117.73 545.55 117.73 545.55 109.08" style="fill:none;stroke:#263238;stroke-miterlimit:10"></polygon><polygon points="545.55 117.73 482.56 117.73 481.73 126.39 545.55 126.39 545.55 117.73" style="fill:none;stroke:#263238;stroke-miterlimit:10"></polygon><polygon points="545.55 126.39 482.56 126.39 481.73 135.05 545.55 135.05 545.55 126.39" style="fill:none;stroke:#263238;stroke-miterlimit:10"></polygon><polygon points="545.55 135.05 482.56 135.05 481.73 143.71 545.55 143.71 545.55 135.05" style="fill:none;stroke:#263238;stroke-miterlimit:10"></polygon><polygon points="545.55 143.71 482.56 143.71 481.73 152.37 545.55 152.37 545.55 143.71" style="fill:none;stroke:#263238;stroke-miterlimit:10"></polygon><polygon points="545.55 152.37 482.56 152.37 481.73 161.03 545.55 161.03 545.55 152.37" style="fill:none;stroke:#263238;stroke-miterlimit:10"></polygon><polygon points="545.55 161.03 482.56 161.03 481.73 169.69 545.55 169.69 545.55 161.03" style="fill:none;stroke:#263238;stroke-miterlimit:10"></polygon><polygon points="545.55 169.69 482.56 169.69 481.73 178.35 545.55 178.35 545.55 169.69" style="fill:none;stroke:#263238;stroke-miterlimit:10"></polygon><polygon points="545.55 178.35 482.56 178.35 481.73 187.01 545.55 187.01 545.55 178.35" style="fill:none;stroke:#263238;stroke-miterlimit:10"></polygon><polygon points="545.55 187.01 482.56 187.01 481.73 195.67 545.55 195.67 545.55 187.01" style="fill:none;stroke:#263238;stroke-miterlimit:10"></polygon><polygon points="545.55 195.67 482.56 195.67 481.73 204.33 545.55 204.33 545.55 195.67" style="fill:none;stroke:#263238;stroke-miterlimit:10"></polygon><polygon points="545.55 204.31 482.56 204.31 481.73 212.97 545.55 212.97 545.55 204.31" style="fill:none;stroke:#263238;stroke-miterlimit:10"></polygon><polygon points="545.55 212.96 482.56 212.96 481.73 221.62 545.55 221.62 545.55 212.96" style="fill:none;stroke:#263238;stroke-miterlimit:10"></polygon><polygon points="545.55 221.6 482.56 221.6 481.73 230.26 545.55 230.26 545.55 221.6" style="fill:none;stroke:#263238;stroke-miterlimit:10"></polygon><polygon points="545.55 230.25 482.56 230.25 481.73 238.91 545.55 238.91 545.55 230.25" style="fill:none;stroke:#263238;stroke-miterlimit:10"></polygon><polygon points="545.55 238.89 482.56 238.89 481.73 247.55 545.55 247.55 545.55 238.89" style="fill:none;stroke:#263238;stroke-miterlimit:10"></polygon><polygon points="545.55 247.54 482.56 247.54 481.73 256.19 545.55 256.19 545.55 247.54" style="fill:none;stroke:#263238;stroke-miterlimit:10"></polygon><polygon points="610.3 74.44 547.31 74.44 546.48 83.1 610.3 83.1 610.3 74.44" style="fill:none;stroke:#263238;stroke-miterlimit:10"></polygon><polygon points="610.3 83.1 547.31 83.1 546.48 91.76 610.3 91.76 610.3 83.1" style="fill:none;stroke:#263238;stroke-miterlimit:10"></polygon><polygon points="610.3 91.76 547.31 91.76 546.48 100.42 610.3 100.42 610.3 91.76" style="fill:none;stroke:#263238;stroke-miterlimit:10"></polygon><polygon points="610.3 100.42 547.31 100.42 546.48 109.08 610.3 109.08 610.3 100.42" style="fill:none;stroke:#263238;stroke-miterlimit:10"></polygon><polygon points="610.3 109.08 547.31 109.08 546.48 117.73 610.3 117.73 610.3 109.08" style="fill:none;stroke:#263238;stroke-miterlimit:10"></polygon><polygon points="610.3 117.73 547.31 117.73 546.48 126.39 610.3 126.39 610.3 117.73" style="fill:none;stroke:#263238;stroke-miterlimit:10"></polygon><polygon points="610.3 126.39 547.31 126.39 546.48 135.05 610.3 135.05 610.3 126.39" style="fill:none;stroke:#263238;stroke-miterlimit:10"></polygon><polygon points="610.3 135.05 547.31 135.05 546.48 143.71 610.3 143.71 610.3 135.05" style="fill:none;stroke:#263238;stroke-miterlimit:10"></polygon><polygon points="610.3 143.71 547.31 143.71 546.48 152.37 610.3 152.37 610.3 143.71" style="fill:none;stroke:#263238;stroke-miterlimit:10"></polygon><polygon points="610.3 152.37 547.31 152.37 546.48 161.03 610.3 161.03 610.3 152.37" style="fill:none;stroke:#263238;stroke-miterlimit:10"></polygon><polygon points="610.3 161.03 547.31 161.03 546.48 169.69 610.3 169.69 610.3 161.03" style="fill:none;stroke:#263238;stroke-miterlimit:10"></polygon><polygon points="610.3 169.69 547.31 169.69 546.48 178.35 610.3 178.35 610.3 169.69" style="fill:none;stroke:#263238;stroke-miterlimit:10"></polygon><polygon points="610.3 178.35 547.31 178.35 546.48 187.01 610.3 187.01 610.3 178.35" style="fill:none;stroke:#263238;stroke-miterlimit:10"></polygon><polygon points="610.3 187.01 547.31 187.01 546.48 195.67 610.3 195.67 610.3 187.01" style="fill:none;stroke:#263238;stroke-miterlimit:10"></polygon><polygon points="610.3 195.67 547.31 195.67 546.48 204.33 610.3 204.33 610.3 195.67" style="fill:none;stroke:#263238;stroke-miterlimit:10"></polygon><polygon points="610.3 204.31 547.31 204.31 546.48 212.97 610.3 212.97 610.3 204.31" style="fill:none;stroke:#263238;stroke-miterlimit:10"></polygon><polygon points="610.3 212.96 547.31 212.96 546.48 221.62 610.3 221.62 610.3 212.96" style="fill:none;stroke:#263238;stroke-miterlimit:10"></polygon><polygon points="610.3 221.6 547.31 221.6 546.48 230.26 610.3 230.26 610.3 221.6" style="fill:none;stroke:#263238;stroke-miterlimit:10"></polygon><polygon points="610.3 230.25 547.31 230.25 546.48 238.91 610.3 238.91 610.3 230.25" style="fill:none;stroke:#263238;stroke-miterlimit:10"></polygon><polygon points="610.3 238.89 547.31 238.89 546.48 247.55 610.3 247.55 610.3 238.89" style="fill:none;stroke:#263238;stroke-miterlimit:10"></polygon><polygon points="610.3 247.54 547.31 247.54 546.48 256.19 610.3 256.19 610.3 247.54" style="fill:none;stroke:#263238;stroke-miterlimit:10"></polygon><rect x="480.26" y="67.73" width="133.19" height="6.53" style="fill:none;stroke:#263238;stroke-miterlimit:10"></rect><line x1="613.45" y1="74.27" x2="613.45" y2="189.31" style="fill:none;stroke:#263238;stroke-miterlimit:10"></line><line x1="612" y1="74.45" x2="612" y2="153.38" style="fill:none;stroke:#263238;stroke-miterlimit:10"></line><rect x="612.6" y="189.06" width="1.79" height="2.93" style="fill:#263238;stroke:#263238;stroke-miterlimit:10"></rect><rect x="610.99" y="152.76" width="1.79" height="2.93" style="fill:#263238;stroke:#263238;stroke-miterlimit:10"></rect></g><g id="freepik--Plants--inject-248"><path d="M33.7,351.7a14.43,14.43,0,0,0-.86-2.64,26.76,26.76,0,0,0-1.33-2.83,34,34,0,0,0-2.94-4.49.26.26,0,0,0-.46.23c.15.6.34,1.4.57,2.3s.4,1.93.6,3c.44,2,.73,4.2,1.1,5.74.23.95.46,1.85.66,2.67a19.14,19.14,0,0,0,.66,2.11l-2-1.79c-.65-.6-1.38-1.11-2.07-1.68a5.39,5.39,0,0,0,.3-2.9,18.53,18.53,0,0,0-1.28-4.88,22.68,22.68,0,0,0-1.31-2.5,28.68,28.68,0,0,0-1.86-2.57,29.28,29.28,0,0,0-3.84-3.95.26.26,0,0,0-.41.31c.28.58.65,1.32,1,2.18s.77,1.82,1.19,2.81c.74,1.94,1.53,4,2.11,5.5.38.92.75,1.77,1.11,2.52s.66,1.46,1,2L24,351.72l-1.68-1a2.4,2.4,0,0,0-.49-.93,8.21,8.21,0,0,0-1.15-1.07,13.77,13.77,0,0,0-3.88-2.07,16.69,16.69,0,0,0-5.12-.83,18.94,18.94,0,0,0-4.47.44c-.23.06-.21.46,0,.52a35.66,35.66,0,0,1,4,1.48c1.54.63,3.11,1.41,4.38,1.85,2.63,1,5,1.58,6.14,1.39l1.66,1c.55.34,1.08.72,1.61,1.08a13.78,13.78,0,0,0-2.09-.08,20.72,20.72,0,0,0-2.48.34,12.55,12.55,0,0,0-2.37.75,18.54,18.54,0,0,0-2.46,1.19c-.79.46-1.53.93-2.15,1.37s-1.16.9-1.54,1.23c-.18.15-.18.51,0,.46.76-.23,2.06-.52,3.57-.81l2.33-.41c.78-.11,1.55-.24,2.24-.4,1.59-.35,3.1-.65,4.37-1A7.16,7.16,0,0,0,27,355.07c.66.54,1.35,1,2,1.61l1.89,1.72a16.5,16.5,0,0,0-2.08-.39,12.66,12.66,0,0,0-2.5-.09A19,19,0,0,0,21.19,359c-.87.3-1.68.61-2.4.93s-1.33.65-1.78.9c-.21.11-.27.46-.08.45.84-.08,2.2-.06,3.78-.08.79,0,1.59.05,2.41.05h2.32c1.6,0,3.23-.18,4.51-.31a6.86,6.86,0,0,0,2.76-.7,49.63,49.63,0,0,1,3.39,3.85,16,16,0,0,0-4.48-1.13,21.42,21.42,0,0,0-5.28.23,33.77,33.77,0,0,0-4.49,1.07c-.23.08-.34.42-.14.44l3.83.61c1.53.34,3.34.59,4.74.8a38.49,38.49,0,0,0,4.55.31,6.59,6.59,0,0,0,2.83-.33l1.53,2.07,1.42,2.14a16.36,16.36,0,0,0-4.35-1.62,21.4,21.4,0,0,0-5.33-.49,37.56,37.56,0,0,0-4.63.38c-.25,0-.39.36-.21.42.83.28,2.22.73,3.8,1.21a42.26,42.26,0,0,0,4.72,1.47,35.41,35.41,0,0,0,4.49.84,6.9,6.9,0,0,0,2.87-.06l1.3,2.22,1.19,2.27a16.42,16.42,0,0,0-4.16-2.06,22.93,22.93,0,0,0-5.25-1,41.06,41.06,0,0,0-4.72-.19c-.24,0-.43.32-.24.41.86.36,2.17,1,3.72,1.7a48.17,48.17,0,0,0,4.54,1.91,34.56,34.56,0,0,0,4.38,1.29,6.7,6.7,0,0,0,2.84.26c.75,1.54,1.37,3.14,2,4.73a17.43,17.43,0,0,0-3.9-2.51,23.15,23.15,0,0,0-5.11-1.57,37.58,37.58,0,0,0-4.66-.65c-.24,0-.46.27-.28.38.81.44,2,1.22,3.51,2s3,1.73,4.26,2.37c3,1.39,5.85,2.53,7,2.34l.75,2.45.63,2.49a15.93,15.93,0,0,0-3.56-3,23.35,23.35,0,0,0-4.86-2.14A44.48,44.48,0,0,0,36.81,385c-.24,0-.49.22-.33.34.68.54,2,1.41,3.22,2.39s2.71,2,3.95,2.8c2.79,1.73,5.49,3.21,6.64,3.19a36,36,0,0,1,.6,5.05c0,.21.23.37.51.37a.44.44,0,0,0,.49-.41,35.91,35.91,0,0,0-.62-5.18c1.09-.3,3.14-2.78,4.53-6.35a24.75,24.75,0,0,0,1.28-5.62,43.51,43.51,0,0,0,.31-5.13c0-.27-.38-.32-.5-.07-.49,1.1-1.31,2.89-2.17,4.78s-1.78,3.78-2.38,5.27a41.7,41.7,0,0,0-1.56,4.69c-.2-.86-.43-1.72-.65-2.58L49.36,386a5.4,5.4,0,0,0,1.85-2.2A19,19,0,0,0,53,379.17a25.59,25.59,0,0,0,.65-5.69,45.91,45.91,0,0,0-.27-5.07c0-.27-.42-.27-.5,0-.34,1.13-1,3-1.65,5s-1.37,4-1.74,5.48a36.66,36.66,0,0,0-1,4.84c-.64-1.65-1.29-3.31-2.06-4.91a5.54,5.54,0,0,0,1.62-2.42,22.33,22.33,0,0,0,1.28-4.79,27.52,27.52,0,0,0,0-5.68,47.17,47.17,0,0,0-.76-5c-.06-.26-.45-.22-.51.05-.22,1.15-.69,3.1-1.13,5.08s-.93,4.05-1.16,5.62a39.37,39.37,0,0,0-.42,4.91l-1.24-2.36-1.34-2.29a5.43,5.43,0,0,0,1.34-2.57,22.65,22.65,0,0,0,.78-4.89,29.64,29.64,0,0,0-.54-5.65c-.44-2-1-3.82-1.36-5-.08-.26-.49-.18-.5.09-.13,1.21-.33,3.19-.54,5.26s-.54,4.15-.58,5.71a39.93,39.93,0,0,0,.08,4.93l-1.46-2.22-1.58-2.13a5.73,5.73,0,0,0,1.08-2.71,20.71,20.71,0,0,0,.22-5,23.83,23.83,0,0,0-1.3-5.66,48.2,48.2,0,0,0-2.1-4.83.27.27,0,0,0-.49.17c.1,1.23.17,3.27.26,5.32s0,4.25.19,5.8a36.84,36.84,0,0,0,.63,4.92c-1.14-1.37-2.26-2.75-3.52-4a5.48,5.48,0,0,0,.72-2.82A18.93,18.93,0,0,0,33.7,351.7Z" style="fill:#FFC100"></path><path d="M71.73,309.8c1.48-1.82,3.45-4.3,5.2-6.67l4.52-5.9c.24-.3,0-.7-.25-.52-1.31.81-3.37,2.24-5.6,3.92a51.62,51.62,0,0,0-6,5.49,47.34,47.34,0,0,0-4.67,6.48l1.35-4.8.69-2.4.8-2.36c1.14.14,4.59-2.72,8.56-6.52,3.42-3.33,8.5-9.22,10.9-11.62.27-.28.11-.7-.2-.54a65.86,65.86,0,0,0-5.94,3.39c-1.16.75-2.39,1.54-3.49,2.38s-2.14,1.71-3,2.53a34.19,34.19,0,0,0-3,3.09c-.88,1-1.67,2-2.32,2.9.9-2.26,1.7-4.57,2.68-6.8a12.88,12.88,0,0,0,2.64-3.65c1.16-1.85,2.38-4.31,3.76-7,.59-1.18,1.21-2.57,1.88-4l1-2.22c.34-.75.68-1.49,1-2.23,1.33-2.95,2.62-5.72,3.48-7.37.19-.37-.13-.61-.43-.29A73.19,73.19,0,0,0,80,271.54l-1.45,2c-.45.71-.91,1.41-1.35,2.09A40.49,40.49,0,0,0,75,279.62a53.49,53.49,0,0,0-2.93,7,17.39,17.39,0,0,0-.94,4.57l-.74,1.71-.67,1.74-1.34,3.49c.11-1.09.18-2.32.22-3.66s0-2.79,0-4.27c0-1.25-.06-2.65-.17-4.13s-.19-3-.29-4.45c-.25-3-.4-5.71-.54-7.41,0-.39-.48-.24-.59.2-.22.94-.5,2.18-.83,3.59s-.56,3-.83,4.64-.44,3.31-.6,4.89a35.38,35.38,0,0,0-.19,4.33c.08,5.8,1.21,10.19,2.18,10.87L66,305c-.25.79-.46,1.58-.69,2.37L64,312.14a70.16,70.16,0,0,0-.5-7.93c-.19-2.46-.77-5.58-1.25-8.5S61.28,290,61,288.37c-.06-.37-.51-.18-.58.25-.24,1.94-.68,5.07-.88,8.37a55.28,55.28,0,0,0,.1,9.28,34.63,34.63,0,0,0,1.46,7.26c.62,1.86,1.25,3.06,1.77,3.36l-.55,2.39-.43,2.43-.84,4.85a64.8,64.8,0,0,0-1.34-7.84c-.44-2.44-1.28-5.48-2.1-8.37s-1.44-5.54-1.89-7.19c-.11-.38-.53-.14-.55.3-.23,3.91-.27,12.73,1,17.72,1.18,5.69,3.29,9.77,4.36,10.22-.46,3.25-.51,6.54-.67,9.82-.24-1.07-.56-2.26-1-3.55-.2-.65-.41-1.31-.64-2s-.46-1.38-.66-2.09c-.71-2.38-1.92-5.32-3-8.11s-2-5.39-2.64-7c-.14-.37-.53-.09-.5.36.07,1,.16,2.27.27,3.73a45.46,45.46,0,0,0,.54,4.73c.27,1.66.57,3.34.89,4.9.17.78.32,1.54.52,2.25s.43,1.38.64,2a43.92,43.92,0,0,0,3,6.78c1,1.65,1.89,2.69,2.46,2.86,0,3.27,0,6.55.07,9.82A64.27,64.27,0,0,0,57,348.5c-.48-1.13-1.09-2.38-1.76-3.66l-1.05-1.94c-.34-.67-.67-1.34-1-2-1.4-2.69-2.7-5.18-3.48-6.69-.19-.35-.54,0-.46.43.37,2,1,5.14,1.77,8.35A70.93,70.93,0,0,0,54,351.54c2.27,5.2,4.79,8.91,5.94,9.22.1,3.27.24,6.53.4,9.8a65.63,65.63,0,0,0-3-7.29,149.17,149.17,0,0,0-8-13.5c-.21-.31-.54,0-.43.43.92,3.62,3.29,11.73,5.45,16.2,2.46,5.12,5.09,8.74,6.25,9,.22,3.27.44,6.53.73,9.79A67.69,67.69,0,0,0,58.09,378a145.74,145.74,0,0,0-8.44-13.21c-.22-.31-.54,0-.42.44,1.05,3.57,3.67,11.6,6,16,2.61,5,5.38,8.57,6.55,8.8.31,3.25.66,6.5,1.08,9.74,0,.41.32.71.59.67s.45-.39.4-.8c-.41-3.22-.76-6.46-1.08-9.69,1.1-.33,3.14-4.35,5-9.66,1.6-4.59,3.37-12.51,4.16-15.95.09-.4-.25-.7-.45-.4-1.68,2.68-5.38,9-7,13.62a49.81,49.81,0,0,0-2.14,7.76c-.29-3.32-.52-6.64-.74-10,1.11-.29,3.29-4.25,5.34-9.49,1.75-4.53,3.76-12.38,4.68-15.79.1-.39-.24-.71-.44-.41-1.76,2.61-5.68,8.81-7.45,13.37a49.79,49.79,0,0,0-2.4,7.69q-.26-5-.41-10c1.12-.25,3.42-4.14,5.65-9.3.94-2.23,2-5.29,2.92-8.21s1.94-5.33,2.46-6.89c.12-.35-.2-.67-.42-.41-.93,1.15-2.47,3.1-4,5.38-.4.57-.79,1.15-1.18,1.75s-.72,1.24-1.06,1.86c-.69,1.24-1.31,2.46-1.8,3.58a49,49,0,0,0-2.64,7.6c-.06-3.33-.11-6.66-.08-10,.56-.1,1.46-1.11,2.5-2.72a64.92,64.92,0,0,0,3.61-6.14c.27-.52.54-1.09.82-1.68l.95-1.88c.65-1.29,1.29-2.65,1.89-4s1.25-2.6,1.81-3.73l1.42-2.87c.16-.34-.12-.7-.36-.46-1.08,1-2.86,2.82-4.71,4.9a51.15,51.15,0,0,0-4.72,6.59,19,19,0,0,0-1,1.94c-.29.65-.57,1.28-.83,1.9-.52,1.25-1,2.43-1.28,3.49.17-3.32.21-6.65.67-9.95,1.18-.1,3.85-3.62,7.05-8.1,2.56-3.93,6.59-10.58,8.4-13.39.2-.32,0-.71-.31-.5-1.19.94-3.14,2.53-5.21,4.42A55.5,55.5,0,0,0,66,320a50.15,50.15,0,0,0-4,6.92l.85-4.91.42-2.46.56-2.43c.57,0,1.67-.77,3-2.09S70,311.88,71.73,309.8Z" style="fill:#FFC100"></path><path d="M97.84,347.81c3.13-1.34,7.65-4,9.59-5.13.22-.13.06-.48-.21-.45-1.18.1-3.11.34-5.18.73a32.45,32.45,0,0,0-5.81,1.61,23.42,23.42,0,0,0-4.86,2.63c1.1-1.83,2.25-3.61,3.41-5.39,1,.51,4.37-.21,8.08-1.45,1.6-.54,3.54-1.44,5.35-2.24s3.43-1.52,4.41-2c.22-.09.09-.44-.17-.45a39.76,39.76,0,0,0-5.14.18,28.43,28.43,0,0,0-5.86,1.15,23.16,23.16,0,0,0-5,2.31c.9-1.27,1.78-2.55,2.72-3.8,1.15-.17,3.48-2.42,5.91-5.31.54-.65,1.13-1.4,1.71-2.23l1.82-2.5a45.85,45.85,0,0,1,3.25-4.08c.18-.21,0-.55-.3-.43a26.73,26.73,0,0,0-4.69,2.73c-.89.62-1.74,1.34-2.55,2a23.64,23.64,0,0,0-2.06,2.1c-2.37,2.8-3.72,5.63-3.77,6.93-1,1.27-1.86,2.58-2.79,3.88a38.81,38.81,0,0,0,.63-5.44c.09-1.78,0-4.09-.07-6.33s-.15-4.38-.15-5.7a.27.27,0,0,0-.53-.06,50,50,0,0,0-1.82,5.54,32.12,32.12,0,0,0-1.1,6.31c-.21,4.09.48,7.45,1.3,8.26-1.14,1.76-2.28,3.51-3.36,5.31a39.22,39.22,0,0,0,.28-5.46c-.05-1.77-.27-4.05-.56-6.25s-.54-4.29-.7-5.56a.27.27,0,0,0-.53,0c-.71,2.53-2,8.24-1.88,11.81.08,4.08.91,7.38,1.79,8.15-1.07,1.8-2.09,3.63-3.1,5.47a35.13,35.13,0,0,0,0-5.46c-.25-3.5-1.5-9.13-2-11.64a.27.27,0,0,0-.52,0,50.58,50.58,0,0,0-1.17,11.8c.28,4.05,1.27,7.31,2.19,8-1,1.85-1.92,3.73-2.86,5.6a32.64,32.64,0,0,0-.23-5.46,106.73,106.73,0,0,0-2.55-11.49.27.27,0,0,0-.52,0c-.18,1.26-.44,3.33-.6,5.52a37.27,37.27,0,0,0,0,6.27c.46,4,1.6,7.25,2.54,7.93-.92,1.89-1.74,3.82-2.59,5.73a33.73,33.73,0,0,0-.49-5.44,56,56,0,0,0-1.46-6.08c-.59-2.1-1.21-4.08-1.6-5.29a.26.26,0,0,0-.51.05c-.25,2.52-.66,8.29-.06,11.82.63,4,2,7.2,2.93,7.82-.78,1.94-1.54,3.9-2.23,5.88a40.35,40.35,0,0,0-.83-5.42,59.15,59.15,0,0,0-1.78-6c-.69-2.08-1.39-4-1.83-5.25a.26.26,0,0,0-.51.08c-.16,2.57-.29,8.4.52,11.9.87,4,2.39,7.08,3.42,7.64-.67,2-1.26,4-1.81,6A41.65,41.65,0,0,0,70.18,384c-1-3.38-3.33-8.71-4.28-11.08a.26.26,0,0,0-.51.11c0,2.58.2,8.49,1.25,12,1.16,4,2.93,6.93,4,7.39a61.14,61.14,0,0,0-1.13,6.21.49.49,0,0,0,.45.53.5.5,0,0,0,.55-.42,56,56,0,0,1,1.11-6.09c1.11.11,4-1.68,7.09-4,2.63-2.07,6.25-5.8,7.88-7.38.19-.18-.06-.48-.31-.39a44.59,44.59,0,0,0-10,5.12,21.67,21.67,0,0,0-4,3.83c.56-2.05,1.15-4.09,1.82-6.11,1.11.21,4.17-1.33,7.42-3.5a101.08,101.08,0,0,0,8.39-7c.19-.17,0-.49-.29-.41-1.14.37-3,1-5,1.81a34,34,0,0,0-5.37,2.74,23.33,23.33,0,0,0-4.23,3.54c.7-2,1.47-4,2.26-6,1.11.29,4.24-1.05,7.64-3.05a90.75,90.75,0,0,0,8.8-6.62c.2-.17,0-.5-.28-.42-1.15.32-3,.89-5,1.6A36.3,36.3,0,0,0,83,368.8a25.44,25.44,0,0,0-4.44,3.29c.86-1.94,1.69-3.9,2.62-5.81,1.08.34,4.29-.81,7.8-2.68a53.54,53.54,0,0,0,5-3.22c1.68-1.18,3.2-2.32,4.12-3,.21-.15,0-.49-.25-.43A50.55,50.55,0,0,0,87,360.52a25.92,25.92,0,0,0-4.6,3.08c1-1.9,1.89-3.81,2.9-5.69,1,.4,4.33-.62,7.9-2.33a101.36,101.36,0,0,0,9.35-5.74c.22-.15,0-.49-.23-.45a47.49,47.49,0,0,0-10.89,3,24.81,24.81,0,0,0-4.74,2.87c1-1.87,2.07-3.73,3.15-5.56C90.88,350.18,94.21,349.32,97.84,347.81Z" style="fill:#FFC100"></path><path d="M54.56,456.45H68.44c11-4.82,19.06-20.78,19.06-39.75A59.94,59.94,0,0,0,83.59,395H39.41A59.94,59.94,0,0,0,35.5,416.7C35.5,435.67,43.57,451.63,54.56,456.45Z" style="fill:#263238"></path><path d="M610.27,351.7a14.43,14.43,0,0,0-.86-2.64,26.65,26.65,0,0,0-1.32-2.83,33,33,0,0,0-3-4.49.26.26,0,0,0-.46.23c.15.6.35,1.4.57,2.3s.4,1.93.61,3c.43,2,.72,4.2,1.1,5.74l.65,2.67c.22.81.44,1.52.66,2.11l-2-1.79c-.66-.6-1.38-1.11-2.07-1.68a5.32,5.32,0,0,0,.29-2.9,18.53,18.53,0,0,0-1.28-4.88,20.91,20.91,0,0,0-1.3-2.5,30,30,0,0,0-5.7-6.52.27.27,0,0,0-.42.31c.28.58.65,1.32,1,2.18s.77,1.82,1.18,2.81l2.12,5.5c.38.92.75,1.77,1.11,2.52a21.74,21.74,0,0,0,1,2l-1.61-1.1-1.69-1a2.23,2.23,0,0,0-.48-.93,8.21,8.21,0,0,0-1.15-1.07,13.77,13.77,0,0,0-3.88-2.07,16.76,16.76,0,0,0-5.13-.83,18.94,18.94,0,0,0-4.47.44c-.23.06-.2.46,0,.52a36.45,36.45,0,0,1,4,1.48c1.54.63,3.11,1.41,4.37,1.85,2.63,1,5,1.58,6.14,1.39l1.67,1c.55.34,1.07.72,1.61,1.08a13.84,13.84,0,0,0-2.09-.08,21.16,21.16,0,0,0-2.49.34,12.78,12.78,0,0,0-2.37.75,19.16,19.16,0,0,0-2.46,1.19c-.79.46-1.52.93-2.15,1.37s-1.15.9-1.53,1.23c-.18.15-.18.51,0,.46.77-.23,2.07-.52,3.58-.81l2.33-.41c.77-.11,1.54-.24,2.24-.4,1.58-.35,3.09-.65,4.37-1a7.09,7.09,0,0,0,2.62-1.11c.66.54,1.36,1,2,1.61l1.9,1.72a16.85,16.85,0,0,0-2.08-.39,12.69,12.69,0,0,0-2.5-.09,18.88,18.88,0,0,0-5.15,1.05c-.87.3-1.68.61-2.4.93s-1.33.65-1.79.9c-.21.11-.27.46-.08.45.84-.08,2.21-.06,3.79-.08.79,0,1.59.05,2.4.05H602c1.6,0,3.22-.18,4.5-.31a7,7,0,0,0,2.77-.7,49.63,49.63,0,0,1,3.39,3.85,16,16,0,0,0-4.48-1.13,21.52,21.52,0,0,0-5.29.23,34,34,0,0,0-4.48,1.07c-.23.08-.34.42-.15.44l3.84.61c1.53.34,3.33.59,4.73.8a38.65,38.65,0,0,0,4.56.31,6.62,6.62,0,0,0,2.83-.33l1.53,2.07,1.42,2.14a16.44,16.44,0,0,0-4.36-1.62,21.32,21.32,0,0,0-5.32-.49,37.75,37.75,0,0,0-4.64.38c-.24,0-.39.36-.2.42.82.28,2.21.73,3.8,1.21a42.77,42.77,0,0,0,4.71,1.47,35.87,35.87,0,0,0,4.5.84,6.85,6.85,0,0,0,2.86-.06l1.31,2.22L621,376.9a16.59,16.59,0,0,0-4.16-2.06,23,23,0,0,0-5.26-1,40.83,40.83,0,0,0-4.71-.19c-.25,0-.44.32-.24.41.86.36,2.17,1,3.72,1.7a49.16,49.16,0,0,0,4.53,1.91,35.55,35.55,0,0,0,4.38,1.29,6.75,6.75,0,0,0,2.85.26c.74,1.54,1.37,3.14,2,4.73a17.66,17.66,0,0,0-3.9-2.51,23.32,23.32,0,0,0-5.11-1.57,37.58,37.58,0,0,0-4.66-.65c-.25,0-.47.27-.29.38.82.44,2.05,1.22,3.51,2s3,1.73,4.27,2.37c3,1.39,5.84,2.53,7,2.34l.74,2.45.64,2.49a16.16,16.16,0,0,0-3.56-3,23.21,23.21,0,0,0-4.87-2.14,44.41,44.41,0,0,0-4.54-1.14c-.24,0-.49.22-.33.34.68.54,2,1.41,3.21,2.39s2.71,2,4,2.8c2.78,1.73,5.48,3.21,6.63,3.19a36.06,36.06,0,0,1,.61,5.05c0,.21.23.37.51.37a.44.44,0,0,0,.49-.41,39,39,0,0,0-.62-5.18c1.08-.3,3.14-2.78,4.52-6.35a24.23,24.23,0,0,0,1.28-5.62,43.88,43.88,0,0,0,.32-5.13.26.26,0,0,0-.5-.07l-2.18,4.78c-.9,1.88-1.78,3.78-2.38,5.27a39.44,39.44,0,0,0-1.55,4.69c-.21-.86-.44-1.72-.66-2.58l-.77-2.55a5.48,5.48,0,0,0,1.86-2.2,19.44,19.44,0,0,0,1.81-4.64,25,25,0,0,0,.64-5.69,49,49,0,0,0-.26-5.07c0-.27-.43-.27-.51,0-.34,1.13-1,3-1.64,5s-1.38,4-1.74,5.48a33.66,33.66,0,0,0-1,4.84c-.64-1.65-1.29-3.31-2.06-4.91a5.62,5.62,0,0,0,1.62-2.42,22.37,22.37,0,0,0,1.27-4.79,26.79,26.79,0,0,0,0-5.68,50,50,0,0,0-.76-5c-.06-.26-.45-.22-.51.05-.22,1.15-.69,3.1-1.13,5.08s-.94,4.05-1.16,5.62a37.79,37.79,0,0,0-.43,4.91l-1.23-2.36-1.35-2.29a5.43,5.43,0,0,0,1.34-2.57,22,22,0,0,0,.78-4.89,28.78,28.78,0,0,0-.53-5.65c-.45-2-1-3.82-1.37-5-.08-.26-.48-.18-.5.09-.12,1.21-.32,3.19-.53,5.26s-.54,4.15-.58,5.71a38,38,0,0,0,.08,4.93l-1.47-2.22L615,365.46a5.61,5.61,0,0,0,1.09-2.71,21.24,21.24,0,0,0,.22-5,24.85,24.85,0,0,0-1.3-5.66,48.2,48.2,0,0,0-2.1-4.83.27.27,0,0,0-.49.17c.1,1.23.17,3.27.25,5.32s0,4.25.19,5.8a40.47,40.47,0,0,0,.63,4.92c-1.14-1.37-2.25-2.75-3.52-4a5.56,5.56,0,0,0,.73-2.82A19,19,0,0,0,610.27,351.7Z" style="fill:#FFC100"></path><path d="M648.31,309.8c1.47-1.82,3.44-4.3,5.19-6.67s3.49-4.54,4.52-5.9c.25-.3.06-.7-.24-.52-1.31.81-3.37,2.24-5.6,3.92a51.62,51.62,0,0,0-6,5.49,46.64,46.64,0,0,0-4.68,6.48l1.36-4.8.69-2.4.8-2.36c1.14.14,4.58-2.72,8.56-6.52,3.42-3.33,8.5-9.22,10.9-11.62.26-.28.1-.7-.21-.54a65.94,65.94,0,0,0-5.93,3.39c-1.16.75-2.39,1.54-3.49,2.38s-2.15,1.71-3,2.53a34,34,0,0,0-3,3.09c-.89,1-1.67,2-2.32,2.9.9-2.26,1.69-4.57,2.68-6.8a12.88,12.88,0,0,0,2.64-3.65c1.16-1.85,2.37-4.31,3.75-7,.6-1.18,1.21-2.57,1.89-4l1-2.22,1-2.23c1.33-2.95,2.62-5.72,3.47-7.37.2-.37-.13-.61-.42-.29a73.19,73.19,0,0,0-5.21,6.43l-1.45,2-1.35,2.09a40.7,40.7,0,0,0-2.25,3.95,52,52,0,0,0-2.92,7,17.51,17.51,0,0,0-.95,4.57l-.73,1.71-.67,1.74-1.35,3.49c.11-1.09.19-2.32.22-3.66s0-2.79.06-4.27c0-1.25-.07-2.65-.17-4.13s-.19-3-.29-4.45c-.25-3-.41-5.71-.54-7.41,0-.39-.49-.24-.59.2l-.84,3.59c-.27,1.43-.56,3-.83,4.64s-.43,3.31-.59,4.89a33.49,33.49,0,0,0-.19,4.33c.08,5.8,1.21,10.19,2.18,10.87l-.79,2.33c-.24.79-.45,1.58-.68,2.37l-1.35,4.73a67.9,67.9,0,0,0-.5-7.93c-.18-2.46-.76-5.58-1.24-8.5s-.95-5.68-1.22-7.34c-.06-.37-.51-.18-.58.25-.25,1.94-.69,5.07-.88,8.37a56.45,56.45,0,0,0,.09,9.28,35.22,35.22,0,0,0,1.47,7.26c.61,1.86,1.25,3.06,1.77,3.36l-.56,2.39-.42,2.43-.84,4.85a66.83,66.83,0,0,0-1.34-7.84c-.44-2.44-1.28-5.48-2.1-8.37s-1.45-5.54-1.9-7.19c-.1-.38-.52-.14-.54.3-.23,3.91-.28,12.73,1,17.72,1.17,5.69,3.29,9.77,4.36,10.22-.46,3.25-.51,6.54-.68,9.82-.24-1.07-.56-2.26-.95-3.55-.19-.65-.4-1.31-.63-2s-.47-1.38-.67-2.09c-.71-2.38-1.92-5.32-3-8.11s-2-5.39-2.64-7c-.14-.37-.54-.09-.51.36.07,1,.17,2.27.27,3.73s.24,3.07.54,4.73.57,3.34.9,4.9c.16.78.32,1.54.51,2.25s.43,1.38.65,2a43,43,0,0,0,3,6.78c1,1.65,1.89,2.69,2.46,2.86,0,3.27,0,6.55.07,9.82a66.2,66.2,0,0,0-2.75-7.4c-.48-1.13-1.1-2.38-1.77-3.66l-1-1.94-1-2-3.49-6.69c-.18-.35-.54,0-.45.43.36,2,1,5.14,1.76,8.35a72.73,72.73,0,0,0,2.92,8.54c2.27,5.2,4.8,8.91,6,9.22.1,3.27.23,6.53.4,9.8a65.88,65.88,0,0,0-3-7.29,147,147,0,0,0-8-13.5c-.21-.31-.54,0-.44.43.92,3.62,3.3,11.73,5.46,16.2,2.45,5.12,5.09,8.74,6.25,9,.21,3.27.44,6.53.72,9.79a67.42,67.42,0,0,0-3.22-7.19,145.61,145.61,0,0,0-8.45-13.21c-.21-.31-.54,0-.42.44,1.05,3.57,3.67,11.6,6,16,2.61,5,5.37,8.57,6.54,8.8.32,3.25.67,6.5,1.09,9.74.05.41.32.71.59.67s.45-.39.4-.8c-.42-3.22-.77-6.46-1.08-9.69,1.09-.33,3.13-4.35,5-9.66,1.6-4.59,3.36-12.51,4.16-15.95.09-.4-.26-.7-.45-.4-1.68,2.68-5.38,9-7,13.62a47.69,47.69,0,0,0-2.14,7.76c-.29-3.32-.53-6.64-.74-10,1.11-.29,3.28-4.25,5.33-9.49,1.76-4.53,3.76-12.38,4.69-15.79.1-.39-.24-.71-.44-.41-1.76,2.61-5.69,8.81-7.46,13.37a49.65,49.65,0,0,0-2.39,7.69q-.25-5-.41-10c1.11-.25,3.41-4.14,5.65-9.3.94-2.23,2-5.29,2.92-8.21s1.93-5.33,2.46-6.89c.12-.35-.21-.67-.42-.41-.94,1.15-2.47,3.1-4.05,5.38-.39.57-.79,1.15-1.17,1.75s-.73,1.24-1.07,1.86c-.68,1.24-1.3,2.46-1.8,3.58a51.16,51.16,0,0,0-2.64,7.6c-.06-3.33-.1-6.66-.07-10,.56-.1,1.45-1.11,2.49-2.72a62.71,62.71,0,0,0,3.62-6.14c.27-.52.54-1.09.82-1.68l.95-1.88c.64-1.29,1.28-2.65,1.88-4s1.26-2.6,1.82-3.73l1.41-2.87c.17-.34-.11-.7-.36-.46-1.08,1-2.85,2.82-4.7,4.9a50.2,50.2,0,0,0-4.72,6.59,19,19,0,0,0-1,1.94c-.3.65-.58,1.28-.83,1.9-.52,1.25-.95,2.43-1.29,3.49.18-3.32.22-6.65.68-9.95,1.17-.1,3.85-3.62,7-8.1,2.57-3.93,6.59-10.58,8.41-13.39.2-.32,0-.71-.31-.5-1.19.94-3.15,2.53-5.21,4.42a55.5,55.5,0,0,0-5.44,6.05,50.31,50.31,0,0,0-4,6.92l.85-4.91.43-2.46.56-2.43c.57,0,1.66-.77,3-2.09S646.52,311.88,648.31,309.8Z" style="fill:#FFC100"></path><path d="M674.42,347.81c3.13-1.34,7.64-4,9.58-5.13.23-.13.07-.48-.2-.45-1.18.1-3.12.34-5.19.73a32.33,32.33,0,0,0-5.8,1.61A23.42,23.42,0,0,0,668,347.2c1.09-1.83,2.25-3.61,3.41-5.39,1,.51,4.37-.21,8.08-1.45,1.59-.54,3.54-1.44,5.34-2.24s3.44-1.52,4.41-2c.23-.09.09-.44-.17-.45a39.62,39.62,0,0,0-5.13.18A28.53,28.53,0,0,0,678,337a23.39,23.39,0,0,0-5,2.31c.9-1.27,1.79-2.55,2.72-3.8,1.16-.17,3.48-2.42,5.92-5.31.54-.65,1.13-1.4,1.71-2.23l1.81-2.5a47.75,47.75,0,0,1,3.25-4.08.27.27,0,0,0-.29-.43,26.75,26.75,0,0,0-4.7,2.73c-.89.62-1.73,1.34-2.54,2a23.64,23.64,0,0,0-2.06,2.1c-2.37,2.8-3.73,5.63-3.78,6.93-1,1.27-1.86,2.58-2.78,3.88a38.81,38.81,0,0,0,.63-5.44c.08-1.78,0-4.09-.08-6.33s-.14-4.38-.14-5.7a.27.27,0,0,0-.53-.06,50,50,0,0,0-1.82,5.54,31.46,31.46,0,0,0-1.11,6.31c-.2,4.09.49,7.45,1.31,8.26-1.14,1.76-2.29,3.51-3.36,5.31a39.22,39.22,0,0,0,.28-5.46c-.05-1.77-.27-4.05-.56-6.25s-.55-4.29-.71-5.56a.26.26,0,0,0-.52,0c-.72,2.53-2,8.24-1.89,11.81.08,4.08.91,7.38,1.8,8.15-1.07,1.8-2.09,3.63-3.1,5.47a35.13,35.13,0,0,0,0-5.46c-.26-3.5-1.5-9.13-2-11.64a.27.27,0,0,0-.52,0,51.09,51.09,0,0,0-1.18,11.8c.29,4.05,1.28,7.31,2.19,8-1,1.85-1.91,3.73-2.85,5.6a32.77,32.77,0,0,0-.24-5.46,109.36,109.36,0,0,0-2.54-11.49.27.27,0,0,0-.52,0c-.19,1.26-.45,3.33-.61,5.52a36.18,36.18,0,0,0,0,6.27c.46,4,1.59,7.25,2.54,7.93-.92,1.89-1.74,3.82-2.59,5.73a33.88,33.88,0,0,0-.5-5.44,53.77,53.77,0,0,0-1.46-6.08c-.59-2.1-1.21-4.08-1.59-5.29a.26.26,0,0,0-.51.05c-.26,2.52-.67,8.29-.07,11.82.63,4,2,7.2,2.94,7.82-.78,1.94-1.55,3.9-2.24,5.88a38.61,38.61,0,0,0-.82-5.42,59.39,59.39,0,0,0-1.79-6c-.68-2.08-1.39-4-1.82-5.25a.27.27,0,0,0-.52.08c-.15,2.57-.28,8.4.53,11.9.87,4,2.39,7.08,3.41,7.64-.67,2-1.25,4-1.81,6a41.41,41.41,0,0,0-1.21-5.35c-1-3.38-3.33-8.71-4.29-11.08a.27.27,0,0,0-.51.11c-.05,2.58.2,8.49,1.25,12,1.16,4,2.93,6.93,4,7.39a56.07,56.07,0,0,0-1.13,6.21.5.5,0,0,0,1,.11,58.57,58.57,0,0,1,1.11-6.09c1.12.11,4-1.68,7.1-4,2.62-2.07,6.24-5.8,7.88-7.38.18-.18-.06-.48-.32-.39a45,45,0,0,0-10,5.12,22,22,0,0,0-4,3.83c.56-2.05,1.15-4.09,1.83-6.11,1.1.21,4.16-1.33,7.42-3.5a102.77,102.77,0,0,0,8.39-7c.19-.17,0-.49-.3-.41-1.13.37-3,1-5,1.81a33.57,33.57,0,0,0-5.37,2.74,23,23,0,0,0-4.23,3.54c.7-2,1.47-4,2.26-6,1.11.29,4.24-1.05,7.64-3.05a90.5,90.5,0,0,0,8.79-6.62c.21-.17,0-.5-.27-.42-1.15.32-3.05.89-5.05,1.6a36.3,36.3,0,0,0-5.53,2.46,26,26,0,0,0-4.45,3.29c.86-1.94,1.7-3.9,2.63-5.81,1.08.34,4.29-.81,7.79-2.68a51,51,0,0,0,5-3.22c1.68-1.18,3.2-2.32,4.12-3,.22-.15,0-.49-.25-.43a50.48,50.48,0,0,0-10.75,3.59A26.41,26.41,0,0,0,659,363.6c1-1.9,1.9-3.81,2.91-5.69,1.05.4,4.33-.62,7.89-2.33a103,103,0,0,0,9.36-5.74c.21-.15,0-.49-.24-.45a47.42,47.42,0,0,0-10.88,3,24.5,24.5,0,0,0-4.74,2.87c1-1.87,2.06-3.73,3.15-5.56C667.46,350.18,670.79,349.32,674.42,347.81Z" style="fill:#FFC100"></path><path d="M631.13,456.45H645c11-4.82,19.06-20.78,19.06-39.75A60.16,60.16,0,0,0,660.17,395H616a59.94,59.94,0,0,0-3.91,21.75C612.08,435.67,620.15,451.63,631.13,456.45Z" style="fill:#263238"></path></g><g id="freepik--Clock--inject-248"><circle cx="357" cy="83" r="35.3" style="fill:#263238;stroke:#263238;stroke-miterlimit:10"></circle><circle cx="357" cy="83" r="31.3" style="fill:#fff;stroke:#263238;stroke-miterlimit:10"></circle><circle cx="357" cy="83" r="3.3" style="fill:#263238;stroke:#263238;stroke-miterlimit:10"></circle><polyline points="372.4 83 357 83 367.18 58.69" style="fill:none;stroke:#263238;stroke-linecap:round;stroke-miterlimit:10"></polyline></g><g id="freepik--Floor--inject-248"><line x1="17" y1="456.45" x2="680" y2="456.45" style="fill:none;stroke:#263238;stroke-linecap:round;stroke-miterlimit:10"></line></g><g id="freepik--character-4--inject-248"><polyline points="647.9 337.5 644.23 361.84 648.9 453.5" style="fill:none;stroke:#263238;stroke-linecap:round;stroke-miterlimit:10;stroke-width:4px"></polyline><polyline points="602.59 337.5 598.93 361.84 603.59 453.5" style="fill:none;stroke:#263238;stroke-linecap:round;stroke-miterlimit:10;stroke-width:4px"></polyline><line x1="584.9" y1="360.84" x2="580.56" y2="454.5" style="fill:none;stroke:#263238;stroke-linecap:round;stroke-miterlimit:10;stroke-width:4px"></line><line x1="544.9" y1="360.84" x2="540.56" y2="454.5" style="fill:none;stroke:#263238;stroke-linecap:round;stroke-miterlimit:10;stroke-width:4px"></line><path d="M601.94,343.34h45a5,5,0,0,0,4.84-4.34l5.9-51.33a3.78,3.78,0,0,0-3.83-4.33h-45a5,5,0,0,0-4.83,4.33L598.11,339A3.78,3.78,0,0,0,601.94,343.34Z" style="fill:#FFC100;stroke:#263238;stroke-linecap:round;stroke-miterlimit:10"></path><path d="M543,363.5H644a3.75,3.75,0,0,0,3.75-3.75h0A3.75,3.75,0,0,0,644,356H543a3.75,3.75,0,0,0-3.75,3.75h0A3.75,3.75,0,0,0,543,363.5Z" style="fill:#FFC100;stroke:#263238;stroke-linecap:round;stroke-miterlimit:10"></path><path d="M585.71,245.48s-3.87,2.58-6.7,10-8.49,47.88-8.49,50.2,5.92,3.6,8.24,1.29,8-21.63,8-21.63l2.31-38.87S588.28,244.71,585.71,245.48Z" style="fill:#fff;stroke:#263238;stroke-linecap:round;stroke-miterlimit:10"></path><path d="M585.71,245.48s-3.87,2.58-6.7,10c-.85,2.24-2,7.45-3.08,13.7l11.34,7.14,1.78-29.85S588.28,244.71,585.71,245.48Z" style="fill:#fff;stroke:#263238;stroke-linecap:round;stroke-miterlimit:10"></path><path d="M605,239.82s-12.1,2.83-17,4.37-4.12,6.7-5.92,14.42-4.37,16.48-2.83,20.85,6.44,12.1,6.69,13.13-7.46,29.86-7.46,29.86-48.4,23.43-49.43,28.06-8,86.31-8,86.31c1.39,2.34,11.33,10.61,10.45,7.94-.25-.77,4-29.11,8.84-41.73s9.27-28.32,11.32-35.78S554.3,358,554.3,358l58.44.77s19.3,2.58,21.62-13.64-2.57-22.4-4.63-26-9.27-28.06-9.27-28.06,9.53-19.31,10.81-25.75,2.83-14.16-.51-17.5-16.48-7.47-16.48-7.47Z" style="fill:#263238;stroke:#263238;stroke-linecap:round;stroke-miterlimit:10"></path><path d="M628.81,317.05c-2.73-6.95-8.35-26-8.35-26s9.53-19.31,10.81-25.75,2.83-14.16-.51-17.5-16.48-7.47-16.48-7.47l-9.27-.51s-12.1,2.83-17,4.37-4.12,6.7-5.92,14.42-4.37,16.48-2.83,20.85,6.44,12.1,6.69,13.13c.19.75-3.8,16.06-6,24.46Z" style="fill:#fff;stroke:#263238;stroke-linecap:round;stroke-miterlimit:10"></path><path d="M521.11,436.82s-8.43,7.73-9.29,8.08S493,449.69,494.27,451s36.06,7.42,36.06,7.42l1.23-13.67Z" style="fill:#fff;stroke:#263238;stroke-linecap:round;stroke-miterlimit:10"></path><path d="M621,266.85l3.87,31.4-30.38,33.47-10.3,5.41-1.54,4.37s10.55-2.31,13.13-3.86a63.69,63.69,0,0,0,6.69-5.15L636.68,308s-.26-46.34-.52-52-8-10.3-11.07-10.3" style="fill:#fff;stroke:#263238;stroke-linecap:round;stroke-miterlimit:10"></path><path d="M624.84,298.25l-30.38,33.47-10.3,5.41-1.54,4.37s10.55-2.31,13.13-3.86a63.69,63.69,0,0,0,6.69-5.15L636.68,308s-.12-20.83-.27-36.26l-14.32,4.15Z" style="fill:#fff;stroke:#263238;stroke-linecap:round;stroke-miterlimit:10"></path><path d="M571.29,299s-1,8.24-.77,10.29,11.84,23.95,12.1,25.23,6.69,5.41,7.21,6.18,7.46,2.58,7.46,2.58,1.8-3.09.26-5.92-11.07-5.67-11.07-5.67l-5.41-28.06v-4.12" style="fill:#fff;stroke:#263238;stroke-linecap:round;stroke-miterlimit:10"></path><path d="M624.84,330.69s-6.44-2.32-17.77-.51-37.58,17.5-37.07,20.08,20.34,88.55,20.34,88.55l11.58,6.7s-2-33.47-1.8-51,0-37.33,0-37.33,18.28,4.89,26.52.77,8.75-12.1,7.72-18.28-3.35-7.46-3.35-7.46" style="fill:#263238;stroke:#263238;stroke-linecap:round;stroke-miterlimit:10"></path><path d="M590.34,438.81s-6.69,9.27-7.47,9.79-17.5,8.49-16,9.52,36.82,0,36.82,0l-1.55-13.64Z" style="fill:#fff;stroke:#263238;stroke-linecap:round;stroke-miterlimit:10"></path><path d="M596.3,203.6s-5.83-6.07-1.86-11.2,15.85-9.09,29.37-3.26,13.53,19.35,13.06,27.51-4.66,20.52-4.66,20.52a179.6,179.6,0,0,1-22.62-.7A39.68,39.68,0,0,1,590,228.78S595.14,207.09,596.3,203.6Z" style="fill:#263238;stroke:#263238;stroke-linecap:round;stroke-miterlimit:10"></path><path d="M602.6,232.74s-.47,5.6-1.17,9.09-1.17,15.39-.23,16.33,5.83-1.64,9.56-7.23a28,28,0,0,0,4.43-10l2.33-8.63S607.26,235.07,602.6,232.74Z" style="fill:#fff;stroke:#263238;stroke-linecap:round;stroke-miterlimit:10"></path><path d="M617.27,233.19l-1.61-.47c-3.18.68-9.63,1.74-13.06,0,0,0-.28,3.35-.73,6.48a12.9,12.9,0,0,0,5.34-.66,31.24,31.24,0,0,0,9.94-4.92Z" style="fill:#263238;stroke:#263238;stroke-linecap:round;stroke-miterlimit:10"></path><path d="M598.17,205s-3.15,14-1.76,19.36S599.89,237,606.89,237s13.61-5.72,15-9.68S625,211.06,625,211.06,607,213.39,598.17,205Z" style="fill:#fff;stroke:#263238;stroke-linecap:round;stroke-miterlimit:10"></path><path d="M610.8,216.91s1.3-1.94,6-.39" style="fill:none;stroke:#263238;stroke-linecap:round;stroke-miterlimit:10"></path><path d="M602.92,214.58S601.7,211,598.77,211" style="fill:none;stroke:#263238;stroke-linecap:round;stroke-miterlimit:10"></path><path d="M601.12,212.69c0,.81-.33.91-.71.87s-.66-.21-.66-1,.3-1.43.68-1.39S601.12,211.88,601.12,212.69Z" style="fill:#263238"></path><path d="M613.09,217c-.15.83-.4.85-.79.85s-.77,0-.62-.85.6-1.52,1-1.52S613.25,216.19,613.09,217Z" style="fill:#263238"></path><path d="M604.69,214a7.21,7.21,0,0,1-.6,3.21c-.71,1.3-2.91,3.1-2.41,3.8a3.33,3.33,0,0,0,3.41,1.8" style="fill:none;stroke:#263238;stroke-linecap:round;stroke-miterlimit:10"></path><path d="M601.08,225s2.7,2,7.61,1.1" style="fill:none;stroke:#263238;stroke-linecap:round;stroke-miterlimit:10"></path><path d="M599,208.58a4,4,0,0,1,4.8,1.31" style="fill:none;stroke:#263238;stroke-linecap:round;stroke-miterlimit:10"></path><path d="M610.19,212.09s3.91-2.2,7.92,1.5" style="fill:none;stroke:#263238;stroke-linecap:round;stroke-miterlimit:10"></path></g><g id="freepik--character-3--inject-248"><line x1="403.56" y1="454.96" x2="407.25" y2="358.86" style="fill:none;stroke:#263238;stroke-linecap:round;stroke-miterlimit:10;stroke-width:4px"></line><line x1="409.41" y1="454.96" x2="414.34" y2="333.9" style="fill:none;stroke:#263238;stroke-linecap:round;stroke-miterlimit:10;stroke-width:4px"></line><line x1="477.79" y1="454.96" x2="472.55" y2="335.14" style="fill:none;stroke:#263238;stroke-linecap:round;stroke-miterlimit:10;stroke-width:4px"></line><line x1="483.03" y1="454.96" x2="479.33" y2="358.86" style="fill:none;stroke:#263238;stroke-linecap:round;stroke-miterlimit:10;stroke-width:4px"></line><rect x="409.99" y="285" width="66" height="59.5" rx="4.5" style="fill:#FFC100;stroke:#263238;stroke-linecap:round;stroke-miterlimit:10"></rect><path d="M483.36,363.5H405.78a3.75,3.75,0,0,1-3.75-3.75h0a3.75,3.75,0,0,1,3.75-3.75h77.58a3.75,3.75,0,0,1,3.75,3.75h0A3.75,3.75,0,0,1,483.36,363.5Z" style="fill:#FFC100;stroke:#263238;stroke-linecap:round;stroke-miterlimit:10"></path><path d="M415.6,320s-5,9.23-6.86,12.4-3.7,15-1.32,18.47,4.22,4.75,6.33,5.54,57.26,0,57.26,0,6.07-8.44,6.6-12.4-1.06-13.46-2.64-16.62-6.07-8.45-6.07-8.45Z" style="fill:#fff;stroke:#263238;stroke-linecap:round;stroke-miterlimit:10"></path><path d="M492.12,277l21.64-31.67s1.84-8.17,2.11-10.55,1.58-3.69,3.43-5a31.15,31.15,0,0,0,5.27-4.49c1.06-1.32,1.85.27,1.32,2.11s-2.37,2.64-3.16,3.17-1.32,2.64-1.32,2.64,9.23-3.43,11.08-4.49,5.8-6.86,6.07-4-3.43,11.88-4.22,12.41-14.78,10.55-14.78,10.55-15.3,40.9-16.89,44.33-3.69,6.07-4.48,6.07-16.36-10-16.36-10l10-12.14Z" style="fill:#fff;stroke:#263238;stroke-linecap:round;stroke-miterlimit:10"></path><path d="M389,277l-21.64-31.67s-1.84-8.17-2.11-10.55-1.58-3.69-3.43-5a31.25,31.25,0,0,1-5.28-4.49c-1.05-1.32-1.84.27-1.31,2.11s2.37,2.64,3.16,3.17,1.32,2.64,1.32,2.64-9.23-3.43-11.08-4.49-5.81-6.86-6.07-4,3.43,11.88,4.22,12.41,14.78,10.55,14.78,10.55,15.3,40.9,16.88,44.33,3.7,6.07,4.49,6.07,16.36-10,16.36-10l-10-12.14Z" style="fill:#fff;stroke:#263238;stroke-linecap:round;stroke-miterlimit:10"></path><path d="M433,241.59l-23.22,6.33L389,276.16l9.5,17.41,14.77-12.66,3.43,32.71-2.37,9s-.79.79,14,3.69,19,1.85,26.39.79,16.89-4.48,16.89-4.48l-2.64-11.35,4.48-28.5,11.88,12.93,8.18-20.32-17.15-27.44-25.6-6.33Z" style="fill:#263238;stroke:#263238;stroke-linecap:round;stroke-miterlimit:10"></path><path d="M427.18,209.05s-3-4.48-4.56.08,5.07,10.16,5.07,10.16l.45-9.55" style="fill:#fff;stroke:#263238;stroke-linecap:round;stroke-miterlimit:10"></path><path d="M435.12,237.9,432.75,240l-3.17,5.27.8,18.74,14.51-9.76L457.55,264s-1.84-21.37-1.84-22.69-2.91-3.43-4.75-4.49S435.12,237.9,435.12,237.9Z" style="fill:#fff;stroke:#263238;stroke-linecap:round;stroke-miterlimit:10"></path><path d="M434.33,235s.27,6.86.53,8.18,10,15,10,15l6.86-16.09.53-15.57Z" style="fill:#fff;stroke:#263238;stroke-linecap:round;stroke-miterlimit:10"></path><path d="M434.63,240.81a11.58,11.58,0,0,0,4.05-.24c6.85-1.55,10.6-7.95,10.6-7.95l-8.12-.84L434.33,235S434.46,238.34,434.63,240.81Z" style="fill:#263238;stroke:#263238;stroke-linecap:round;stroke-miterlimit:10"></path><path d="M426.29,201.17s.94,24.45,1.61,27,6,10.84,12,10.19S452,233,452.59,229.1s2.17-15.41,3.17-20.06,5-9.63-3.63-14.2S426.4,193.7,426.29,201.17Z" style="fill:#fff;stroke:#263238;stroke-linecap:round;stroke-miterlimit:10"></path><path d="M432.3,213.76c-.06,1-.57,1.85-1.16,1.82s-1-.9-.95-1.93.58-1.85,1.17-1.82S432.36,212.73,432.3,213.76Z" style="fill:#263238"></path><path d="M442.11,216c-.06,1-.58,1.85-1.16,1.81s-1-.9-.95-1.93.58-1.85,1.16-1.82S442.17,214.92,442.11,216Z" style="fill:#263238"></path><path d="M434.49,211.81a54.58,54.58,0,0,1-1.08,6.78c-.63,2.3-2.84,2.76-1.48,4.31s3.79,1.4,6.26,1" style="fill:none;stroke:#263238;stroke-linecap:round;stroke-miterlimit:10"></path><path d="M431.7,226.06s3.32,2.67,10.24,1.09" style="fill:none;stroke:#263238;stroke-linecap:round;stroke-miterlimit:10"></path><path d="M429.26,209.38s3.2-1.63,4.21.4" style="fill:none;stroke:#263238;stroke-linecap:round;stroke-miterlimit:10"></path><path d="M438.64,210.87s3.94-1.25,7,3" style="fill:none;stroke:#263238;stroke-linecap:round;stroke-miterlimit:10"></path><path d="M450.87,204.52s-13.17,2.19-19.38.94-11.77-6.67-8.9-11.29,19.4-9.49,25.91-8.46,12.87,3.11,13.14,9.83-2.57,19.63-2.57,19.63L457,216.44s-2.82-4.18-4.12-4.39S447.7,209.36,450.87,204.52Z" style="fill:#263238;stroke:#263238;stroke-linecap:round;stroke-miterlimit:10"></path><path d="M453.61,215.91s6-5.73,7.78-3.58-.24,8.24-3.9,11.14-5.12.26-5.12.26" style="fill:#fff;stroke:#263238;stroke-linecap:round;stroke-miterlimit:10"></path><path d="M442.13,439.23s-8.4-98.45-12.13-105.45-13.65-10.24-22.83-2.58-3.33,21.59-1.35,31.74,16.83,70.63,16.83,70.63Z" style="fill:#fff;stroke:#263238;stroke-linecap:round;stroke-miterlimit:10"></path><path d="M422.65,433.57,419.58,442S407,452,407.5,453.57a3.78,3.78,0,0,1,.18.74A2.39,2.39,0,0,0,410,456.4h35.27a47.37,47.37,0,0,0,0-9c-.51-3.6-3-8.58-3-8.58Z" style="fill:#263238;stroke:#263238;stroke-linecap:round;stroke-miterlimit:10"></path><path d="M445.48,453.06H407.62a.73.73,0,0,0-.12.51,3.78,3.78,0,0,1,.18.74A2.39,2.39,0,0,0,410,456.4h35.27S445.42,455,445.48,453.06Z" style="fill:#fff;stroke:#263238;stroke-linecap:round;stroke-miterlimit:10"></path><path d="M450.61,439.72s3.13-98.64,6.55-105.79,13.2-10.82,22.7-3.57,4.26,21.43,2.72,31.65S470,434,470,434Z" style="fill:#fff;stroke:#263238;stroke-linecap:round;stroke-miterlimit:10"></path><path d="M470,434l3,8s12.59,10,12.08,11.57a4.66,4.66,0,0,0-.18.74,2.39,2.39,0,0,1-2.33,2.09H447.29a47.37,47.37,0,0,1,0-9c.51-3.6,3-8.58,3-8.58Z" style="fill:#263238;stroke:#263238;stroke-linecap:round;stroke-miterlimit:10"></path><path d="M447.09,453.06H485a.73.73,0,0,1,.12.51,4.66,4.66,0,0,0-.18.74,2.39,2.39,0,0,1-2.33,2.09H447.29S447.15,455,447.09,453.06Z" style="fill:#fff;stroke:#263238;stroke-linecap:round;stroke-miterlimit:10"></path><path d="M398.87,150.7H351.13a7.35,7.35,0,0,0-7.35,7.35v25.54a7.35,7.35,0,0,0,7.35,7.35h31.09L403,205.62l-6-14.68h1.83a7.35,7.35,0,0,0,7.35-7.35V158.05A7.35,7.35,0,0,0,398.87,150.7Z" style="fill:#FFC100;stroke:#263238;stroke-miterlimit:10"></path><path d="M363.51,170.5A2.56,2.56,0,1,1,361,168,2.56,2.56,0,0,1,363.51,170.5Z" style="fill:#263238"></path><path d="M377.55,170.5A2.55,2.55,0,1,1,375,168,2.56,2.56,0,0,1,377.55,170.5Z" style="fill:#263238"></path><path d="M391.6,170.5a2.56,2.56,0,1,1-2.55-2.55A2.56,2.56,0,0,1,391.6,170.5Z" style="fill:#263238"></path></g><g id="freepik--character-2--inject-248"><line x1="255.42" y1="454.96" x2="259.11" y2="358.86" style="fill:none;stroke:#263238;stroke-linecap:round;stroke-miterlimit:10;stroke-width:4px"></line><line x1="261.27" y1="454.96" x2="266.2" y2="333.9" style="fill:none;stroke:#263238;stroke-linecap:round;stroke-miterlimit:10;stroke-width:4px"></line><line x1="329.65" y1="454.96" x2="324.41" y2="335.14" style="fill:none;stroke:#263238;stroke-linecap:round;stroke-miterlimit:10;stroke-width:4px"></line><line x1="334.89" y1="454.96" x2="331.19" y2="358.86" style="fill:none;stroke:#263238;stroke-linecap:round;stroke-miterlimit:10;stroke-width:4px"></line><rect x="261.85" y="285" width="66" height="59.5" rx="4.5" style="fill:#FFC100;stroke:#263238;stroke-linecap:round;stroke-miterlimit:10"></rect><path d="M335.22,363.5H257.64a3.75,3.75,0,0,1-3.75-3.75h0a3.75,3.75,0,0,1,3.75-3.75h77.58a3.75,3.75,0,0,1,3.75,3.75h0A3.75,3.75,0,0,1,335.22,363.5Z" style="fill:#FFC100;stroke:#263238;stroke-linecap:round;stroke-miterlimit:10"></path><path d="M280.28,203A13.75,13.75,0,0,0,269.55,197c-7.62-.58-14.84,4.1-18.36,11.52s3.91,11.91,3.91,16.6-9.77,5.86-13.08,12.11-3.91,17.76,8.78,23.62,22.85,2.34,28.9-2.73,3.32-13.28,1.17-20.5,2.93-22.26,4.49-26.17S280.28,203,280.28,203Z" style="fill:#263238;stroke:#263238;stroke-linecap:round;stroke-miterlimit:10"></path><path d="M265.23,294,259,317.5s-3.5,4-7.75,2.75-3.75-6.5-3.5-7.5l6.75-27Z" style="fill:#fff;stroke:#263238;stroke-linecap:round;stroke-miterlimit:10"></path><path d="M285.1,243.75s-.25,8.5-1.75,11-8.75,3.75-13,4.75-8.75,3.25-11.25,6.75S248.6,291,248.6,291l17,9,2.25-8.25,6.75,11.5s-10,16.25-13.5,26.25-3.25,17.75,2.25,23.75,11.75,6.75,17.75,7,34.5,1,41-1.5S332.6,351,331.85,338s-14.25-32.5-15-34.25-1.5-3.25-1.5-3.25l2-10.75,3.25,7.75,15.75-10.75s-7.75-18.5-12-23-10.5-5.25-15.25-6-6.75-2-8.5-4.75-1.5-9.25-1.5-9.25Z" style="fill:#fff;stroke:#263238;stroke-linecap:round;stroke-miterlimit:10"></path><path d="M299.09,244.69l-7-.94h-7s0,1.4-.19,3.21c1.89,1.56,6.83,5.41,9.83,5.76a14.53,14.53,0,0,0,5.42-.59A22.3,22.3,0,0,1,299.09,244.69Z" style="fill:#263238;stroke:#263238;stroke-linecap:round;stroke-miterlimit:10"></path><path d="M322.1,294l6.25,23.5s3.5,4,7.75,2.75,3.75-6.5,3.5-7.5l-6.75-27Z" style="fill:#fff;stroke:#263238;stroke-linecap:round;stroke-miterlimit:10"></path><path d="M331.85,338c-.75-13-14.25-32.5-15-34.25s-1.5-3.25-1.5-3.25l2-10.75,3.25,7.75,15.75-10.75s-7.75-18.5-12-23c-3.05-3.23-7.13-4.52-11-5.27l-4.8,18.77h-31l-5.94-18-1.31.29c-4.25,1-8.75,3.25-11.25,6.75S248.6,291,248.6,291l17,9,2.25-8.25,6.75,11.5s-10,16.25-13.5,26.25-3.25,17.75,2.25,23.75,11.75,6.75,17.75,7,34.5,1,41-1.5S332.6,351,331.85,338Z" style="fill:#263238;stroke:#263238;stroke-linecap:round;stroke-miterlimit:10"></path><path d="M285.35,427.25s-11.5-67.25-12-74.5,4.75-11.5,10.75-12.75,11,5,11.5,9.25c.42,3.61.31,61.24.26,77A45.09,45.09,0,0,1,295,435c-.48,2.4-1,5.08-1.13,6-.25,1.75-.25,9-3.25,13s-7.5,6.75-9,2-.25-11.75,1-15.5,2.5-6.75,2.5-6.75Z" style="fill:#fff;stroke:#263238;stroke-linecap:round;stroke-miterlimit:10"></path><path d="M293.6,437.5c-1.75,4.5-3,8-6.75,8.25s-4.25-5.25-4.25-5.25c-1.25,3.75-2.5,10.75-1,15.5s6,2,9-2,3-11.25,3.25-13c.13-.89.65-3.57,1.13-6,.11-.55.2-1.11.29-1.66C294.69,434.76,294.1,436.21,293.6,437.5Z" style="fill:#263238;stroke:#263238;stroke-linecap:round;stroke-miterlimit:10"></path><path d="M307.88,427.25s11.5-67.25,12-74.5-4.75-11.5-10.75-12.75-11,5-11.5,9.25c-.43,3.61-.31,61.24-.27,77a45.1,45.1,0,0,0,.89,8.75c.48,2.4,1,5.08,1.13,6,.25,1.75.25,9,3.25,13s7.5,6.75,9,2,.25-11.75-1-15.5-2.5-6.75-2.5-6.75Z" style="fill:#fff;stroke:#263238;stroke-linecap:round;stroke-miterlimit:10"></path><path d="M299.63,437.5c1.75,4.5,3,8,6.75,8.25s4.25-5.25,4.25-5.25c1.25,3.75,2.5,10.75,1,15.5s-6,2-9-2-3-11.25-3.25-13c-.13-.89-.65-3.57-1.13-6-.11-.55-.21-1.11-.3-1.66C298.54,434.76,299.12,436.21,299.63,437.5Z" style="fill:#263238;stroke:#263238;stroke-linecap:round;stroke-miterlimit:10"></path><path d="M332.6,311.25,303.35,332s-4.75,2-5.25,2.75-3.5,7.75-2.75,9,2.23,3.53,2.23,3.53a12.31,12.31,0,0,0,2-3c.25-1,4.75-3.5,5.75-5.75s2.75-5.25,2.75-5.25,22.25-8.25,24.75-10,7-2.75,7-8" style="fill:#fff;stroke:#263238;stroke-linecap:round;stroke-miterlimit:10"></path><path d="M254.42,311l31.3,17.5s4.94,1.48,5.52,2.17,4.31,7.33,3.69,8.65l-1.74,3.79a12.74,12.74,0,0,1-2.43-2.83c-.35-1-5.1-3-6.33-5.1s-3.3-4.93-3.3-4.93-23-5.82-25.68-7.29-7.25-2-7.81-7.21" style="fill:#fff;stroke:#263238;stroke-linecap:round;stroke-miterlimit:10"></path><path d="M287.62,201.35c-.71.2-1.42.39-2.14.55A12.4,12.4,0,0,0,275.61,213c-1,8.13.39,18.59,3.29,25.28s13.06,13,18.88,10.39,9.18-10.2,9.18-19.22.26-16.64-3.81-22.17C299.37,202.13,293.05,199.85,287.62,201.35Z" style="fill:#fff;stroke:#263238;stroke-linecap:round;stroke-miterlimit:10"></path><path d="M303.15,207.26c-3.78-5.13-10.1-7.41-15.53-5.91-.71.2-1.42.39-2.14.55A12.4,12.4,0,0,0,275.61,213a55.8,55.8,0,0,0,.25,13.56l.1-.06s2.42-1.56,2.42-4-.34-8.31,4.68-11.78,13-3.63,16.11-2.77,4.85,1.22,6.58,5.72l.53,1.38A18.31,18.31,0,0,0,303.15,207.26Z" style="fill:#263238;stroke:#263238;stroke-linecap:round;stroke-miterlimit:10"></path><path d="M278.56,227.7s-3.81-5.2-5.72-1.91.52,7.79,2.25,8.83,3.29-2.42,3.29-2.42" style="fill:#fff;stroke:#263238;stroke-linecap:round;stroke-miterlimit:10"></path><ellipse cx="289.03" cy="225.2" rx="1" ry="1.77" style="fill:#263238"></ellipse><ellipse cx="299.34" cy="224.23" rx="1" ry="1.77" style="fill:#263238"></ellipse><path d="M295.88,221.81s.34,3.81,1,5,4.16,1.56,2.6,3.46a3.13,3.13,0,0,1-4.5.52" style="fill:none;stroke:#263238;stroke-linecap:round;stroke-miterlimit:10"></path><path d="M291.2,233.76a8.14,8.14,0,0,0,8.49-.52" style="fill:none;stroke:#263238;stroke-linecap:round;stroke-miterlimit:10"></path><path d="M284.1,221.11s3.12-3.63,7.1-1.38" style="fill:none;stroke:#263238;stroke-linecap:round;stroke-miterlimit:10"></path><path d="M296.05,219.38s3.64-2.59,6.23.35" style="fill:none;stroke:#263238;stroke-linecap:round;stroke-miterlimit:10"></path></g><g id="freepik--character-1--inject-248"><polyline points="83.16 337.5 86.82 361.84 82.16 453.5" style="fill:none;stroke:#263238;stroke-linecap:round;stroke-miterlimit:10;stroke-width:4px"></polyline><polyline points="129.62 337.5 133.29 361.84 128.62 453.5" style="fill:none;stroke:#263238;stroke-linecap:round;stroke-miterlimit:10;stroke-width:4px"></polyline><line x1="146.15" y1="360.84" x2="150.49" y2="454.5" style="fill:none;stroke:#263238;stroke-linecap:round;stroke-miterlimit:10;stroke-width:4px"></line><line x1="186.15" y1="360.84" x2="190.49" y2="454.5" style="fill:none;stroke:#263238;stroke-linecap:round;stroke-miterlimit:10;stroke-width:4px"></line><path d="M129.11,343.34h-45A5,5,0,0,1,79.28,339l-5.91-51.33a3.78,3.78,0,0,1,3.83-4.33h45a5,5,0,0,1,4.83,4.33L132.94,339A3.78,3.78,0,0,1,129.11,343.34Z" style="fill:#FFC100;stroke:#263238;stroke-linecap:round;stroke-miterlimit:10"></path><path d="M188.07,363.5h-101a3.75,3.75,0,0,1-3.75-3.75h0A3.75,3.75,0,0,1,87.07,356h101a3.75,3.75,0,0,1,3.75,3.75h0A3.75,3.75,0,0,1,188.07,363.5Z" style="fill:#FFC100;stroke:#263238;stroke-linecap:round;stroke-miterlimit:10"></path><path d="M132.24,258.5s7.5,2.75,9,6.25S152,308.25,152,308.25l33.75,7.25-3.75,5-39.25.5Z" style="fill:#fff;stroke:#263238;stroke-linecap:round;stroke-miterlimit:10"></path><path d="M138.78,297.42l10.07-2.56c-2.83-12-6.69-27.95-7.61-30.11-1.5-3.5-9-6.25-9-6.25Z" style="fill:#263238;stroke:#263238;stroke-linecap:round;stroke-miterlimit:10"></path><path d="M99,253.5l-20.5,11.25s6,45.5,7.75,57,3.5,20,8.5,21.75,45.75-7.75,48.5-8.75,1.75-9.75.5-14.25-8-53-8.25-57-3.5-6-8.75-8-18.25-2.75-22.25-2.75S99,253.5,99,253.5Z" style="fill:#263238;stroke:#263238;stroke-linecap:round;stroke-miterlimit:10"></path><path d="M99,253.5l-5.81,3.19L115.49,285l8.71-30.24c-6.09-1.44-16.26-2-19.71-2C100.49,252.75,99,253.5,99,253.5Z" style="fill:#fff;stroke:#263238;stroke-linecap:round;stroke-miterlimit:10"></path><polygon points="95.49 244.5 97.24 255.5 113.74 278 118.99 254.5 118.99 243.25 95.49 244.5" style="fill:#fff;stroke:#263238;stroke-linecap:round;stroke-miterlimit:10"></polygon><path d="M88,206.75S86.74,203,81.49,203,71,209,71,215a8.34,8.34,0,0,0,9,8.5c4-.25,6.25-1.75,7.25-5S88,206.75,88,206.75Z" style="fill:#263238;stroke:#263238;stroke-linecap:round;stroke-miterlimit:10"></path><path d="M89.73,202.37a17.91,17.91,0,0,0-4.13,10.57c-.34,6.53,3.43,18.2,4.46,23.35s4.94,13.22,17,14.94,16-12.88,16-17.69-2.4-19.22-4.46-25.4-5.15-10.64-12.36-11.33S93.76,198.17,89.73,202.37Z" style="fill:#fff;stroke:#263238;stroke-linecap:round;stroke-miterlimit:10"></path><path d="M123,233.54a89,89,0,0,0-1.43-12c.1,1.19.28,3,.65,5.72.75,5.5-.5,6.25-.5,6.25s-2.25-3.75-9.5-5-15.75,9.25-16.5,9.25-1-1-2-4.25-4-9.75-3-12.75,1-3.5-.5-6.25-2.25-3.75,2-7.24c5-4.12,13.72-4.6,20-4.88a6.7,6.7,0,0,1,4.18.82,12.3,12.3,0,0,0-10.2-6.39c-7.21-.69-12.44,1.36-16.47,5.56a17.91,17.91,0,0,0-4.13,10.57c-.34,6.53,3.43,18.2,4.46,23.35s4.94,13.22,17,14.94S123,238.35,123,233.54Z" style="fill:#263238;stroke:#263238;stroke-linecap:round;stroke-miterlimit:10"></path><path d="M115.74,233.25a33.68,33.68,0,0,1-12,2" style="fill:none;stroke:#fff;stroke-linecap:round;stroke-miterlimit:10"></path><path d="M111,217.75l1.25,9.25s-3,4.25-6.75-1" style="fill:none;stroke:#263238;stroke-linecap:round;stroke-miterlimit:10"></path><path d="M105.24,214.5c-.21.23-7-2-8.75,3.75" style="fill:none;stroke:#263238;stroke-linecap:round;stroke-miterlimit:10;stroke-width:2px"></path><path d="M111.24,213.5s4.5-3.5,8,1.25" style="fill:none;stroke:#263238;stroke-linecap:round;stroke-miterlimit:10;stroke-width:2px"></path><ellipse cx="102.11" cy="220" rx="1.13" ry="2" style="fill:#263238"></ellipse><ellipse cx="115.74" cy="219" rx="1.13" ry="2" style="fill:#263238"></ellipse><path d="M86.74,224s-4-3-4.25,2.75A8.07,8.07,0,0,0,88.24,235c1.25.25,1.5-1.5,1.5-1.5Z" style="fill:#fff;stroke:#263238;stroke-linecap:round;stroke-miterlimit:10"></path><path d="M81.24,263.5s-7.5,2.75-9.75,4.5-5.34,8.83-3.24,24.24c.74,5.45,6.24,43.26,6.24,43.26l61.5-3.25,10.25-3.5L89.49,319.5,85,277" style="fill:#263238;stroke:#263238;stroke-linecap:round;stroke-miterlimit:10"></path><path d="M74.49,335.5l61.5-3.25,10.25-3.5L89.49,319.5,87,300.05l-17.55,1.53C70.46,315.37,74.49,335.5,74.49,335.5Z" style="fill:#fff;stroke:#263238;stroke-linecap:round;stroke-miterlimit:10"></path><path d="M89,336s4,16,9.75,21,15.75,4.25,25.25,4.25,30.25-5.5,31-5.5,35.5,8.75,35.5,8.75l-10.75,79.25,15.5,3S217,369,217,367.25s5-8.75-3.5-19.5-50.25-14-59.5-16.25S89,336,89,336Z" style="fill:#fff;stroke:#263238;stroke-linecap:round;stroke-miterlimit:10"></path><path d="M173.42,341.93l-12.68,15L155,355.75l-7.25,1.75s-.36-2.88,4.65-8.89S173.42,341.93,173.42,341.93Z" style="fill:#263238"></path><path d="M179.74,443.75l-2.5,12.75s12.75,3,16.25,3.75,14.75.25,17.25,0-1.75-2.75-3.25-3.5-13-7.75-13-7.75l.75-2.25Z" style="fill:#fff;stroke:#263238;stroke-linecap:round;stroke-miterlimit:10"></path><path d="M105,340.25s49-19.88,54-21.75c10.75-4,25.91-2.94,28-2.5,4.75,1,49.25,45.75,49.25,45.75l-9.5,8.5-45.75-32s-26.75,16-33.25,19.25-21,5.25-31.75,4.5-17.5-6.25-19.25-9.75-1-5.75-1-5.75" style="fill:#fff;stroke:#263238;stroke-linecap:round;stroke-miterlimit:10"></path><path d="M226.74,370.25,239.49,382s24.25-25.5,25-26.5,3-5.25,1.5-5.25-27.25,12.25-27.25,12.25l-2.5-.75Z" style="fill:#fff;stroke:#263238;stroke-linecap:round;stroke-miterlimit:10"></path><path d="M185.74,315.5s11.5.75,12,1.75,4.75,7,5,8.75a31,31,0,0,1,.25,3.75s-9.5-5.25-10-6.5a18.6,18.6,0,0,1-.75-3.75Z" style="fill:#fff;stroke:#263238;stroke-linecap:round;stroke-miterlimit:10"></path></g><g id="freepik--Lamps--inject-248"><polygon points="623.51 65.08 598.43 90.47 660.2 90.47 635.12 65.08 623.51 65.08" style="fill:#263238;stroke:#263238;stroke-miterlimit:10"></polygon><rect x="623.51" y="61.7" width="11.49" height="3.38" style="fill:#263238;stroke:#263238;stroke-miterlimit:10"></rect><line x1="629.17" y1="61.7" x2="629.17" y2="18" style="fill:none;stroke:#263238;stroke-miterlimit:10"></line><polygon points="77.51 65.08 52.43 90.47 114.2 90.47 89.12 65.08 77.51 65.08" style="fill:#263238;stroke:#263238;stroke-miterlimit:10"></polygon><rect x="77.51" y="61.7" width="11.49" height="3.38" style="fill:#263238;stroke:#263238;stroke-miterlimit:10"></rect><line x1="83.17" y1="61.7" x2="83.17" y2="18" style="fill:none;stroke:#263238;stroke-miterlimit:10"></line></g></svg>