<?xml version="1.0" encoding="utf-8"?>
<svg version="1.1" id="Layer_1" xmlns="http://www.w3.org/2000/svg" xmlns:xlink="http://www.w3.org/1999/xlink" x="0px" y="0px"
	 viewBox="0 0 500 500" style="enable-background:new 0 0 500 500;" xml:space="preserve"><g><path d="M137.658,245.548c0,16.81 13.627,30.434 30.434,30.434c16.808,0 30.435,-13.624 30.435,-30.434c-0,-16.807 -13.627,-30.434 -30.435,-30.434c-16.807,-0 -30.434,13.627 -30.434,30.434" style="fill:#fff;fill-rule:nonzero;"/><path d="M178.95,317.989c-0,16.81 13.624,30.434 30.434,30.434c16.808,0 30.432,-13.624 30.432,-30.434c-0,-16.807 -13.624,-30.434 -30.432,-30.434c-16.81,0 -30.434,13.627 -30.434,30.434" style="fill:#fff;fill-rule:nonzero;"/><path d="M259.184,317.989c-0,16.81 13.627,30.434 30.434,30.434c16.81,0 30.434,-13.624 30.434,-30.434c0,-16.807 -13.624,-30.434 -30.434,-30.434c-16.807,0 -30.434,13.627 -30.434,30.434" style="fill:#e88d00;fill-rule:nonzero;"/><path d="M297.462,245.548c0,16.81 13.624,30.434 30.434,30.434c16.808,0 30.432,-13.624 30.432,-30.434c0,-16.807 -13.624,-30.434 -30.432,-30.434c-16.81,-0 -30.434,13.627 -30.434,30.434" style="fill:#e88d00;fill-rule:nonzero;"/><path d="M178.95,178.057c-0,16.81 13.624,30.434 30.434,30.434c16.808,-0 30.432,-13.624 30.432,-30.434c-0,-16.808 -13.624,-30.434 -30.432,-30.434c-16.81,-0 -30.434,13.626 -30.434,30.434" style="fill:#fff;fill-rule:nonzero;"/><path d="M259.184,178.057c-0,16.81 13.627,30.434 30.434,30.434c16.81,-0 30.434,-13.624 30.434,-30.434c0,-16.808 -13.624,-30.434 -30.434,-30.434c-16.807,-0 -30.434,13.626 -30.434,30.434" style="fill:#e88d00;fill-rule:nonzero;"/><path d="M231.574,384.521c-0,10.061 8.157,18.216 18.216,18.216c10.059,0 18.214,-8.155 18.214,-18.216c-0,-10.059 -8.155,-18.214 -18.214,-18.214c-10.059,0 -18.216,8.155 -18.216,18.214" style="fill:#fff;fill-rule:nonzero;"/><path d="M348.08,314.243c0,10.059 8.155,18.213 18.214,18.213c10.061,0 18.216,-8.154 18.216,-18.213c0,-10.062 -8.155,-18.214 -18.216,-18.214c-10.059,-0 -18.214,8.152 -18.214,18.214" style="fill:#e88d00;fill-rule:nonzero;"/><path d="M115.905,317.989c0,10.061 8.155,18.214 18.214,18.214c10.061,-0 18.216,-8.153 18.216,-18.214c0,-10.059 -8.155,-18.214 -18.216,-18.214c-10.059,0 -18.214,8.155 -18.214,18.214" style="fill:#fff;fill-rule:nonzero;"/><path d="M115.905,178.057c0,10.061 8.155,18.213 18.214,18.213c10.061,0 18.216,-8.152 18.216,-18.213c0,-10.059 -8.155,-18.214 -18.216,-18.214c-10.059,0 -18.214,8.155 -18.214,18.214" style="fill:#fff;fill-rule:nonzero;"/><path d="M348.08,178.057c0,10.061 8.155,18.213 18.214,18.213c10.061,0 18.216,-8.152 18.216,-18.213c0,-10.059 -8.155,-18.214 -18.216,-18.214c-10.059,0 -18.214,8.155 -18.214,18.214" style="fill:#e88d00;fill-rule:nonzero;"/><path d="M231.574,111.002c-0,10.059 8.157,18.214 18.216,18.214c10.059,-0 18.214,-8.155 18.214,-18.214c-0,-10.061 -8.155,-18.214 -18.214,-18.214c-10.059,0 -18.216,8.153 -18.216,18.214" style="fill:#fff;fill-rule:nonzero;"/><path d="M60.406,248.494c0,8.682 7.04,15.723 15.723,15.723c8.683,-0 15.721,-7.041 15.721,-15.723c0,-8.683 -7.038,-15.721 -15.721,-15.721c-8.683,-0 -15.723,7.038 -15.723,15.721" style="fill:#fff;fill-rule:nonzero;"/><path d="M409.924,248.494c-0,8.682 7.04,15.723 15.723,15.723c8.683,-0 15.721,-7.041 15.721,-15.723c-0,-8.683 -7.038,-15.721 -15.721,-15.721c-8.683,-0 -15.723,7.038 -15.723,15.721" style="fill:#e88d00;fill-rule:nonzero;"/><path d="M322.701,400.245c0,8.683 7.041,15.721 15.724,15.721c8.682,-0 15.72,-7.038 15.72,-15.721c0,-8.683 -7.038,-15.724 -15.72,-15.724c-8.683,0 -15.724,7.041 -15.724,15.724" style="fill:#e88d00;fill-rule:nonzero;"/><path d="M152.37,400.245c0,8.683 7.038,15.721 15.724,15.721c8.682,-0 15.721,-7.038 15.721,-15.721c-0,-8.683 -7.039,-15.724 -15.721,-15.724c-8.686,0 -15.724,7.041 -15.724,15.724" style="fill:#fff;fill-rule:nonzero;"/><path d="M146.374,92.788c0,8.683 7.04,15.721 15.723,15.721c8.683,-0 15.721,-7.038 15.721,-15.721c0,-8.683 -7.038,-15.723 -15.721,-15.723c-8.683,-0 -15.723,7.04 -15.723,15.723" style="fill:#fff;fill-rule:nonzero;"/><path d="M322.701,92.788c0,8.683 7.041,15.721 15.724,15.721c8.682,-0 15.72,-7.038 15.72,-15.721c0,-8.683 -7.038,-15.723 -15.72,-15.723c-8.683,-0 -15.724,7.04 -15.724,15.723" style="fill:#e88d00;fill-rule:nonzero;"/><path d="M120.018,39.71c0,6.086 4.933,11.018 11.016,11.018c6.084,0 11.016,-4.932 11.016,-11.018c0,-6.083 -4.932,-11.015 -11.016,-11.015c-6.083,-0 -11.016,4.932 -11.016,11.015" style="fill:#fff;fill-rule:nonzero;"/><path d="M54.096,136.608c0,6.083 4.932,11.016 11.016,11.016c6.084,-0 11.016,-4.933 11.016,-11.016c-0,-6.084 -4.932,-11.016 -11.016,-11.016c-6.084,0 -11.016,4.932 -11.016,11.016" style="fill:#fff;fill-rule:nonzero;"/><path d="M2.398,245.548c-0,6.084 4.932,11.016 11.015,11.016c6.084,-0 11.016,-4.932 11.016,-11.016c0,-6.084 -4.932,-11.016 -11.016,-11.016c-6.083,0 -11.015,4.932 -11.015,11.016" style="fill:#fff;fill-rule:nonzero;"/><path d="M54.096,360.381c0,6.084 4.932,11.016 11.016,11.016c6.084,0 11.016,-4.932 11.016,-11.016c-0,-6.085 -4.932,-11.018 -11.016,-11.018c-6.084,0 -11.016,4.933 -11.016,11.018" style="fill:#fff;fill-rule:nonzero;"/><path d="M123.104,456.51c0,6.083 4.932,11.016 11.016,11.016c6.084,-0 11.016,-4.933 11.016,-11.016c-0,-6.084 -4.932,-11.016 -11.016,-11.016c-6.084,0 -11.016,4.932 -11.016,11.016" style="fill:#fff;fill-rule:nonzero;"/><path d="M238.773,467.525c-0,6.086 4.932,11.019 11.015,11.019c6.084,-0 11.019,-4.933 11.019,-11.019c-0,-6.083 -4.935,-11.015 -11.019,-11.015c-6.083,-0 -11.015,4.932 -11.015,11.015" style="fill:#fff;fill-rule:nonzero;"/><path d="M358.329,453.372c0,6.086 4.932,11.018 11.016,11.018c6.084,0 11.016,-4.932 11.016,-11.018c-0,-6.084 -4.932,-11.016 -11.016,-11.016c-6.084,0 -11.016,4.932 -11.016,11.016" style="fill:#e88d00;fill-rule:nonzero;"/><path d="M425.646,355.291c0,6.084 4.932,11.016 11.016,11.016c6.083,0 11.016,-4.932 11.016,-11.016c-0,-6.083 -4.933,-11.016 -11.016,-11.016c-6.084,0 -11.016,4.933 -11.016,11.016" style="fill:#e88d00;fill-rule:nonzero;"/><path d="M475.462,248.494c0,6.083 4.933,11.018 11.016,11.018c6.084,-0 11.016,-4.935 11.016,-11.018c-0,-6.084 -4.932,-11.016 -11.016,-11.016c-6.083,-0 -11.016,4.932 -11.016,11.016" style="fill:#e88d00;fill-rule:nonzero;"/><path d="M425.646,136.608c0,6.083 4.932,11.016 11.016,11.016c6.083,-0 11.016,-4.933 11.016,-11.016c-0,-6.084 -4.933,-11.016 -11.016,-11.016c-6.084,0 -11.016,4.932 -11.016,11.016" style="fill:#e88d00;fill-rule:nonzero;"/><path d="M358.329,39.71c0,6.086 4.932,11.018 11.016,11.018c6.084,0 11.016,-4.932 11.016,-11.018c-0,-6.083 -4.932,-11.015 -11.016,-11.015c-6.084,-0 -11.016,4.932 -11.016,11.015" style="fill:#e88d00;fill-rule:nonzero;"/><path d="M237.152,28.695c-0,6.083 4.932,11.016 11.015,11.016c6.084,-0 11.016,-4.933 11.016,-11.016c0,-6.084 -4.932,-11.016 -11.016,-11.016c-6.083,-0 -11.015,4.932 -11.015,11.016" style="fill:#fff;fill-rule:nonzero;"/></g></svg>